<?xml version="1.0" encoding="utf-8"?>
<!-- Generator: Adobe Illustrator 27.5.0, SVG Export Plug-In . SVG Version: 6.00 Build 0)  -->
<svg version="1.1" id="Layer_1" xmlns="http://www.w3.org/2000/svg" xmlns:xlink="http://www.w3.org/1999/xlink" x="0px" y="0px"
	viewBox="235 233 90 90" style="enable-background:new 235 233 90 90;" xml:space="preserve">
<g>
	<g>
		<g>
			<polygon style="fill:#E6E7E8;" points="257.776,304.796 270.209,311.974 296.112,296.998 283.678,289.819 			"/>
			<polygon style="fill:#BCBEC0;" points="257.776,310.026 270.209,317.204 270.209,311.974 257.776,304.796 			"/>
			<polygon style="fill:#A7A9AC;" points="296.112,296.998 270.209,311.974 270.209,317.204 296.112,302.248 			"/>
		</g>
		<polygon style="fill:#A7A9AC;" points="269.396,310.492 260.353,305.273 260.353,250.662 277.016,252.504 		"/>
		<polygon style="fill:#BCBEC0;" points="284.422,236.708 260.353,250.662 269.396,255.879 277.356,254.156 293.462,241.929 		"/>
		<polygon style="fill:#939598;" points="293.462,241.929 269.396,255.879 269.396,310.492 293.462,296.541 		"/>
		<polygon style="fill:#535359;" points="291.809,245.518 271.05,257.554 271.05,301.574 291.809,289.539 		"/>
		<polygon style="fill:#A7A9AC;" points="291.902,245.572 271.143,257.608 271.143,301.628 291.902,289.592 		"/>
		<g>
			<path style="fill:#303033;" d="M273.02,259.495c-0.108,0.063-0.196,0.012-0.196-0.112c0-0.126,0.088-0.276,0.196-0.34
				l4.721-2.727c0.107-0.063,0.196-0.012,0.196,0.114c0,0.125-0.089,0.278-0.196,0.339L273.02,259.495z"/>
			<path style="fill:#303033;" d="M277.74,257.789c0.107-0.063,0.196-0.011,0.196,0.113c0,0.124-0.089,0.277-0.196,0.339
				l-4.721,2.725c-0.108,0.062-0.196,0.012-0.196-0.112c0-0.125,0.088-0.275,0.196-0.34L277.74,257.789z"/>
			<path style="fill:#303033;" d="M277.74,259.26c0.107-0.063,0.196-0.012,0.196,0.113s-0.089,0.277-0.196,0.341l-4.721,2.724
				c-0.108,0.06-0.196,0.012-0.196-0.113c0-0.126,0.088-0.275,0.196-0.338L277.74,259.26z"/>
			<path style="fill:#303033;" d="M277.74,260.73c0.107-0.063,0.196-0.012,0.196,0.113c0,0.124-0.089,0.277-0.196,0.34l-4.721,2.725
				c-0.108,0.064-0.196,0.013-0.196-0.113c0-0.125,0.088-0.276,0.196-0.338L277.74,260.73z"/>
		</g>
		<g>
			<path style="fill:#303033;" d="M278.151,269.804c-0.697,0.406-0.961,0-0.582-0.9l3.667-8.671
				c0.381-0.898,1.004-1.259,1.385-0.799l3.663,4.439c0.381,0.462,0.119,1.167-0.584,1.573L278.151,269.804z"/>
			<path style="fill:#FF9D26;" d="M277.794,269.438c0.028,0.045,0.14,0.051,0.358-0.077l7.549-4.357
				c0.222-0.127,0.332-0.262,0.361-0.341c0.029-0.077,0.023-0.222-0.1-0.364l-3.663-4.439c-0.111-0.133-0.245-0.168-0.37-0.094
				c-0.126,0.072-0.261,0.263-0.371,0.521l-3.665,8.672C277.773,269.24,277.764,269.392,277.794,269.438z"/>
			<polygon style="fill:#303033;" points="282.945,263.881 282.003,263.996 282.793,261.231 280.908,264.644 281.85,264.53
				281.061,267.295 			"/>
		</g>
		<g>
			<g>
				<path style="fill:#939598;" d="M291.516,256.041c0.212,0.123,0.559,0.123,0.771,0c0.105-0.06,0.157-0.142,0.157-0.222v0.157
					c0,0.08-0.052,0.162-0.157,0.222c-0.212,0.123-0.559,0.123-0.771,0c-0.107-0.06-0.16-0.142-0.16-0.222v-0.157
					C291.355,255.899,291.408,255.98,291.516,256.041z"/>
				<path style="fill:#BCBEC0;" d="M291.516,255.597c0.212-0.122,0.559-0.122,0.771,0c0.21,0.122,0.21,0.321,0,0.444
					c-0.212,0.123-0.559,0.123-0.771,0C291.303,255.918,291.303,255.719,291.516,255.597z"/>
			</g>
			<g>
				<path style="fill:#BCBEC0;" d="M291.459,250.8c0.245,0.14,0.64,0.14,0.885,0c0.119-0.069,0.184-0.162,0.184-0.255v5.313
					c0,0.092-0.064,0.185-0.184,0.256c-0.245,0.14-0.64,0.14-0.885,0c-0.122-0.071-0.184-0.164-0.184-0.256v-5.313
					C291.275,250.638,291.337,250.73,291.459,250.8z"/>
				<path style="fill:#E6E7E8;" d="M291.459,250.289c0.245-0.141,0.64-0.141,0.885,0c0.241,0.143,0.241,0.37,0,0.511
					c-0.245,0.14-0.64,0.14-0.885,0C291.213,250.659,291.213,250.432,291.459,250.289z"/>
			</g>
			<g>
				<path style="fill:#BCBEC0;" d="M291.516,250.586c0.212,0.122,0.559,0.122,0.771,0c0.105-0.062,0.157-0.142,0.157-0.223v0.158
					c0,0.079-0.052,0.16-0.157,0.222c-0.212,0.123-0.559,0.123-0.771,0c-0.107-0.062-0.16-0.143-0.16-0.222v-0.158
					C291.355,250.444,291.408,250.524,291.516,250.586z"/>
				<path style="fill:#E6E7E8;" d="M291.516,250.142c0.212-0.124,0.559-0.124,0.771,0c0.21,0.123,0.21,0.321,0,0.444
					c-0.212,0.122-0.559,0.122-0.771,0C291.303,250.463,291.303,250.265,291.516,250.142z"/>
			</g>
		</g>
		<g>
			<g>
				<path style="fill:#939598;" d="M291.516,284.996c0.212,0.123,0.559,0.123,0.771,0c0.105-0.06,0.157-0.142,0.157-0.222v0.156
					c0,0.081-0.052,0.16-0.157,0.223c-0.212,0.125-0.559,0.125-0.771,0c-0.107-0.063-0.16-0.142-0.16-0.223v-0.156
					C291.355,284.854,291.408,284.936,291.516,284.996z"/>
				<path style="fill:#BCBEC0;" d="M291.516,284.551c0.212-0.122,0.559-0.122,0.771,0c0.21,0.123,0.21,0.323,0,0.445
					c-0.212,0.123-0.559,0.123-0.771,0C291.303,284.874,291.303,284.674,291.516,284.551z"/>
			</g>
			<g>
				<path style="fill:#BCBEC0;" d="M291.459,279.754c0.245,0.141,0.64,0.141,0.885,0c0.119-0.07,0.184-0.162,0.184-0.253v5.313
					c0,0.094-0.064,0.184-0.184,0.255c-0.245,0.143-0.64,0.143-0.885,0c-0.122-0.07-0.184-0.161-0.184-0.255v-5.313
					C291.275,279.592,291.337,279.684,291.459,279.754z"/>
				<path style="fill:#E6E7E8;" d="M291.459,279.246c0.245-0.143,0.64-0.143,0.885,0c0.241,0.139,0.241,0.368,0,0.508
					c-0.245,0.141-0.64,0.141-0.885,0C291.213,279.614,291.213,279.385,291.459,279.246z"/>
			</g>
			<g>
				<path style="fill:#BCBEC0;" d="M291.516,279.542c0.212,0.122,0.559,0.122,0.771,0c0.105-0.064,0.157-0.142,0.157-0.224v0.157
					c0,0.081-0.052,0.161-0.157,0.221c-0.212,0.123-0.559,0.123-0.771,0c-0.107-0.06-0.16-0.14-0.16-0.221v-0.157
					C291.355,279.4,291.408,279.478,291.516,279.542z"/>
				<path style="fill:#E6E7E8;" d="M291.516,279.097c0.212-0.123,0.559-0.123,0.771,0c0.21,0.123,0.21,0.323,0,0.445
					c-0.212,0.122-0.559,0.122-0.771,0C291.303,279.42,291.303,279.22,291.516,279.097z"/>
			</g>
		</g>
	</g>
</g>
</svg>
