<?xml version="1.0" encoding="utf-8"?>
<!-- Generator: Adobe Illustrator 27.5.0, SVG Export Plug-In . SVG Version: 6.00 Build 0)  -->
<svg version="1.1" id="Layer_1" xmlns="http://www.w3.org/2000/svg" xmlns:xlink="http://www.w3.org/1999/xlink" x="0px" y="0px"
	viewBox="330 235 80 80" style="enable-background:new 330 235 80 80;" xml:space="preserve">
<g>
	<g>
		<g>
			<rect x="381.714" y="254.655" style="fill:#535359;" width="8.194" height="22.581"/>
			<polygon style="fill:#808285;" points="386.831,270.826 386.831,258.85 383.23,260.855 383.23,272.83 			"/>
			<g>
				<g>
					<g>
						<polygon style="fill:#E6E7E8;" points="381.139,262.117 382.966,261.05 376.623,257.389 376.623,257.389 374.786,258.447
													"/>
						<path style="fill:#A7A9AC;" d="M374.786,258.447v11.818l6.353,3.666v-11.814L374.786,258.447z"/>
						<polygon style="fill:#BCBEC0;" points="381.139,273.932 382.966,272.873 382.966,272.873 382.966,261.05 382.966,261.05
							381.139,262.117 381.139,273.932 						"/>
						<polygon style="fill:#535359;" points="381.714,271.867 382.401,271.467 382.401,265.984 381.714,266.376 						"/>
					</g>
				</g>
				<g>
					<polygon style="fill:#E31B25;" points="382.011,268.23 382.011,268.748 381.054,268.192 381.054,268.192 381.054,267.682
						"/>
					<path style="fill:#FF3F4A;" d="M382.011,268.23l1.961-1.134l-0.95-0.556l-1.968,1.141L382.011,268.23z"/>
					<polygon style="fill:#9C251F;" points="383.972,267.097 383.972,267.608 383.972,267.608 382.011,268.748 382.011,268.748
						382.011,268.23 383.972,267.097 					"/>
				</g>
				<g>
					<g>
						<polygon style="fill:#E6E7E8;" points="378.443,263.67 380.272,262.602 373.929,258.941 373.929,258.941 372.09,260 						"/>
						<path style="fill:#A7A9AC;" d="M372.09,260v11.818l6.354,3.666V263.67L372.09,260z"/>
						<polygon style="fill:#BCBEC0;" points="378.443,275.484 380.272,274.426 380.272,274.426 380.272,262.602 380.272,262.602
							378.443,263.67 378.443,275.484 						"/>
						<polygon style="fill:#535359;" points="379.02,273.418 379.707,273.02 379.707,267.535 379.02,267.931 						"/>
					</g>
					<g>
						<polygon style="fill:#E31B25;" points="379.315,269.784 379.315,270.303 378.359,269.746 378.359,269.746 378.359,269.232
													"/>
						<path style="fill:#FF3F4A;" d="M379.315,269.784l1.961-1.135l-0.949-0.556l-1.968,1.139L379.315,269.784z"/>
						<polygon style="fill:#9C251F;" points="381.276,268.649 381.276,269.163 381.276,269.163 379.315,270.303 379.315,270.303
							379.315,269.784 381.276,268.649 						"/>
					</g>
				</g>
				<g>
					<g>
						<polygon style="fill:#E6E7E8;" points="375.901,265.138 377.729,264.069 371.385,260.408 371.385,260.408 369.549,261.468
													"/>
						<path style="fill:#A7A9AC;" d="M369.549,261.468v11.817l6.353,3.666v-11.814L369.549,261.468z"/>
						<polygon style="fill:#BCBEC0;" points="375.901,276.951 377.729,275.893 377.729,275.893 377.729,264.069 377.729,264.069
							375.901,265.138 375.901,276.951 						"/>
						<polygon style="fill:#535359;" points="376.477,274.886 377.165,274.487 377.165,269.003 376.477,269.397 						"/>
					</g>
					<g>
						<polygon style="fill:#E31B25;" points="376.773,271.252 376.773,271.77 375.815,271.214 375.815,271.214 375.815,270.7
							"/>
						<path style="fill:#FF3F4A;" d="M376.773,271.252l1.961-1.136l-0.95-0.555l-1.969,1.139L376.773,271.252z"/>
						<polygon style="fill:#9C251F;" points="378.734,270.116 378.734,270.63 378.734,270.63 376.773,271.77 376.773,271.77
							376.773,271.252 378.734,270.116 						"/>
					</g>
				</g>
				<g>
					<g>
						<polygon style="fill:#E6E7E8;" points="373.206,266.69 375.035,265.622 368.691,261.961 368.691,261.961 366.852,263.022
													"/>
						<path style="fill:#A7A9AC;" d="M366.852,263.022v11.817l6.354,3.667V266.69L366.852,263.022z"/>
						<polygon style="fill:#BCBEC0;" points="373.206,278.506 375.035,277.445 375.035,277.445 375.035,265.622 375.035,265.622
							373.206,266.69 373.206,278.506 						"/>
						<polygon style="fill:#535359;" points="373.782,276.439 374.47,276.04 374.47,270.556 373.782,270.95 						"/>
					</g>
					<g>
						<polygon style="fill:#E31B25;" points="374.078,272.805 374.078,273.322 373.121,272.766 373.121,272.766 373.121,272.252
													"/>
						<path style="fill:#FF3F4A;" d="M374.078,272.805l1.961-1.136l-0.949-0.555l-1.969,1.138L374.078,272.805z"/>
						<polygon style="fill:#9C251F;" points="376.039,271.669 376.039,272.184 376.039,272.184 374.078,273.322 374.078,273.322
							374.078,272.805 376.039,271.669 						"/>
					</g>
				</g>
				<g>
					<g>
						<polygon style="fill:#E6E7E8;" points="359.475,274.502 372.494,267.093 366.147,263.433 366.147,263.433 353.111,270.841
													"/>
						<path style="fill:#A7A9AC;" d="M353.111,270.841v11.814l6.363,3.67v-11.822L353.111,270.841z"/>
						<polygon style="fill:#BCBEC0;" points="359.475,286.324 372.494,278.904 372.494,278.904 372.494,267.093 372.494,267.093
							359.475,274.502 359.475,286.324 						"/>
						<polygon style="fill:#535359;" points="360.117,284.271 371.927,277.503 371.927,272.022 360.117,278.787 						"/>
						<polygon style="fill:#E6E7E8;" points="361.172,281.515 370.742,275.99 370.742,273.982 361.172,279.515 						"/>
						<polygon style="fill:#303033;" points="363.6,275.726 371.37,271.329 371.37,270.659 363.6,275.061 						"/>
						<polygon style="fill:#E31B25;" points="368,271.918 371.424,269.98 371.424,269.107 368,271.034 						"/>
					</g>
				</g>
			</g>
			<polygon style="fill:#808285;" points="358.877,286.56 358.877,274.718 356.228,276.253 356.228,288.096 			"/>
			<path style="fill:#939598;" d="M351.278,272.125v24.857l36.79-21.316v-24.855L351.278,272.125z M385.879,270.204l-32.41,18.778
				v-10.115l32.41-18.779V270.204z"/>
			<path style="fill:#535359;" d="M387.438,264.849c0,0.384-0.276,0.859-0.608,1.052c-0.336,0.191-0.61,0.032-0.61-0.352
				c0-0.042,0-0.083,0.009-0.133c0.259-0.184,0.467-0.535,0.517-0.86c0.025-0.025,0.06-0.041,0.085-0.058
				C387.161,264.306,387.438,264.455,387.438,264.849z"/>
			<path style="fill:#303033;" d="M386.744,264.556c-0.05,0.325-0.258,0.677-0.517,0.86
				C386.277,265.1,386.486,264.738,386.744,264.556z"/>
			<path style="fill:#F1F2F2;" d="M389.621,253.834l-35.373,20.494v20.492l35.373-20.495V253.834z M356.438,290.94v-17.023
				l32.409-18.778v17.022L356.438,290.94z"/>
			<polygon style="fill:#E6E7E8;" points="354.534,300.334 342.56,293.421 342.56,264.944 364.625,267.385 355.785,272.708
				355.956,293.566 			"/>
			<polygon style="fill:#F1F2F2;" points="379.352,243.629 342.56,264.944 354.534,271.856 362.62,269.683 391.325,250.541 			"/>
			<path style="fill:#BCBEC0;" d="M354.534,271.856v28.478l36.791-21.317v-28.476L354.534,271.856z M389.136,272.317l-32.412,18.778
				v-17.024l32.412-18.776V272.317z"/>
			<g>
				<polygon style="fill:#3576AB;" points="365.103,291.365 356.724,296.204 356.724,293.877 365.103,289.039 				"/>
				<polygon style="fill:#E31B25;" points="368.585,287.028 366.464,288.255 366.464,290.579 368.585,289.354 				"/>
			</g>
		</g>
		<g>
			<g>
				<g>
					<path style="fill:#0F2034;" d="M389.27,259.122c0.101,0.059,0.265,0.059,0.362,0c0.053-0.029,0.075-0.067,0.075-0.104v0.074
						c0,0.038-0.022,0.075-0.075,0.104c-0.098,0.059-0.262,0.059-0.362,0c-0.05-0.029-0.075-0.066-0.075-0.104v-0.074
						C389.194,259.055,389.22,259.093,389.27,259.122z"/>
					<path style="fill:#BCBEC0;" d="M389.27,258.914c0.101-0.061,0.265-0.061,0.362,0c0.101,0.056,0.101,0.15,0,0.208
						c-0.098,0.059-0.262,0.059-0.362,0C389.17,259.065,389.17,258.97,389.27,258.914z"/>
				</g>
				<g>
					<path style="fill:#1D374E;" d="M389.244,256.597c0.114,0.068,0.301,0.068,0.416,0c0.056-0.031,0.086-0.075,0.086-0.119v2.558
						c0,0.045-0.03,0.088-0.086,0.12c-0.115,0.066-0.302,0.066-0.416,0c-0.058-0.032-0.088-0.075-0.088-0.12v-2.558
						C389.156,256.522,389.186,256.565,389.244,256.597z"/>
					<path style="fill:#2A4E68;" d="M389.244,256.357c0.114-0.066,0.301-0.066,0.416,0c0.113,0.068,0.113,0.174,0,0.239
						c-0.115,0.068-0.302,0.068-0.416,0C389.126,256.531,389.126,256.426,389.244,256.357z"/>
				</g>
				<g>
					<path style="fill:#1D374E;" d="M389.27,256.497c0.101,0.057,0.265,0.057,0.362,0c0.053-0.028,0.075-0.065,0.075-0.104v0.074
						c0,0.037-0.022,0.075-0.075,0.105c-0.098,0.057-0.262,0.057-0.362,0c-0.05-0.03-0.075-0.068-0.075-0.105v-0.074
						C389.194,256.432,389.22,256.469,389.27,256.497z"/>
					<path style="fill:#2A4E68;" d="M389.27,256.288c0.101-0.058,0.265-0.058,0.362,0c0.101,0.057,0.101,0.151,0,0.209
						c-0.098,0.057-0.262,0.057-0.362,0C389.17,256.44,389.17,256.345,389.27,256.288z"/>
				</g>
			</g>
			<g>
				<g>
					<path style="fill:#0F2034;" d="M389.27,271.683c0.101,0.058,0.265,0.058,0.362,0c0.053-0.029,0.075-0.067,0.075-0.104v0.073
						c0,0.038-0.022,0.076-0.075,0.104c-0.098,0.058-0.262,0.058-0.362,0c-0.05-0.028-0.075-0.066-0.075-0.104v-0.073
						C389.194,271.615,389.22,271.653,389.27,271.683z"/>
					<path style="fill:#BCBEC0;" d="M389.27,271.473c0.101-0.058,0.265-0.058,0.362,0c0.101,0.059,0.101,0.151,0,0.21
						c-0.098,0.058-0.262,0.058-0.362,0C389.17,271.624,389.17,271.531,389.27,271.473z"/>
				</g>
				<g>
					<path style="fill:#1D374E;" d="M389.244,269.157c0.114,0.066,0.301,0.066,0.416,0c0.056-0.032,0.086-0.076,0.086-0.118v2.558
						c0,0.043-0.03,0.086-0.086,0.12c-0.115,0.065-0.302,0.065-0.416,0c-0.058-0.034-0.088-0.077-0.088-0.12v-2.558
						C389.156,269.081,389.186,269.125,389.244,269.157z"/>
					<path style="fill:#2A4E68;" d="M389.244,268.917c0.114-0.065,0.301-0.065,0.416,0c0.113,0.067,0.113,0.175,0,0.24
						c-0.115,0.066-0.302,0.066-0.416,0C389.126,269.092,389.126,268.984,389.244,268.917z"/>
				</g>
				<g>
					<path style="fill:#1D374E;" d="M389.27,269.058c0.101,0.058,0.265,0.058,0.362,0c0.053-0.029,0.075-0.065,0.075-0.105v0.076
						c0,0.035-0.022,0.073-0.075,0.104c-0.098,0.058-0.262,0.058-0.362,0c-0.05-0.03-0.075-0.068-0.075-0.104v-0.076
						C389.194,268.992,389.22,269.028,389.27,269.058z"/>
					<path style="fill:#2A4E68;" d="M389.27,268.849c0.101-0.06,0.265-0.06,0.362,0c0.101,0.056,0.101,0.151,0,0.209
						c-0.098,0.058-0.262,0.058-0.362,0C389.17,269,389.17,268.904,389.27,268.849z"/>
				</g>
			</g>
		</g>
	</g>
</g>
</svg>
