<?xml version="1.0" encoding="utf-8"?>
<!-- Generator: Adobe Illustrator 27.5.0, SVG Export Plug-In . SVG Version: 6.00 Build 0)  -->
<svg version="1.1" id="Layer_1" xmlns="http://www.w3.org/2000/svg" xmlns:xlink="http://www.w3.org/1999/xlink" x="0px" y="0px"
	viewBox="230 10 100 100" style="enable-background:new 230 10 100 100;" xml:space="preserve">
<g>
	<g>
		<g>
			<polygon style="opacity:0.3;" points="278.782,94.31 254.544,80.315 270.895,70.876 295.131,84.868 			"/>
			<g>
				<polygon style="fill:#E6E7E8;" points="267.048,67.786 291.286,81.782 295.131,79.522 270.892,65.527 				"/>
				<polygon style="fill:#BCBEC0;" points="267.048,73.094 291.286,87.088 291.286,81.782 267.048,67.786 				"/>
				<polygon style="fill:#A7A9AC;" points="295.131,79.522 291.286,81.782 291.286,87.088 295.131,84.868 				"/>
			</g>
			<g>
				<polygon style="fill:#E6E7E8;" points="260.796,71.397 285.034,85.391 288.879,83.132 264.638,69.138 				"/>
				<polygon style="fill:#BCBEC0;" points="260.796,76.705 285.034,90.7 285.034,85.391 260.796,71.397 				"/>
				<polygon style="fill:#A7A9AC;" points="288.879,83.132 285.034,85.391 285.034,90.7 288.879,88.479 				"/>
			</g>
			<g>
				<polygon style="fill:#E6E7E8;" points="254.544,75.007 278.782,89.002 282.626,86.744 258.387,72.748 				"/>
				<polygon style="fill:#BCBEC0;" points="254.544,80.315 278.782,94.31 278.782,89.002 254.544,75.007 				"/>
				<polygon style="fill:#A7A9AC;" points="282.626,86.744 278.782,89.002 278.782,94.31 282.626,92.09 				"/>
			</g>
			<g>
				<polygon style="fill:#3576AB;" points="255.948,52.568 278.708,65.708 293.758,56.983 270.997,43.843 				"/>
				<polygon style="fill:#2B5E85;" points="255.948,74.985 278.708,88.126 278.708,65.708 255.948,52.568 				"/>
				<polygon style="fill:#174666;" points="293.758,56.983 278.708,65.708 278.708,88.126 293.758,79.437 				"/>
			</g>
			<g>
				<polygon style="fill:#E6E7E8;" points="255.948,51.634 278.708,64.774 293.758,56.05 270.997,42.91 				"/>
				<polygon style="fill:#BCBEC0;" points="255.948,52.568 278.708,65.708 278.708,64.774 255.948,51.634 				"/>
				<polygon style="fill:#A7A9AC;" points="293.758,56.05 278.708,64.774 278.708,65.708 293.758,57.02 				"/>
			</g>
			<g>
				<polygon style="fill:#174666;" points="293.758,56.05 278.708,64.774 278.709,63.974 286.232,57.204 293.758,55.25 				"/>
				<polygon style="fill:#2B5E85;" points="255.948,51.634 278.708,64.774 278.708,63.974 255.948,50.833 				"/>
				<polygon style="fill:#2B5E85;" points="286.232,57.204 272.729,51.798 263.473,44.063 270.997,42.109 293.758,55.25 				"/>
				<polygon style="fill:#3576AB;" points="278.709,63.974 255.948,50.833 263.473,44.063 286.232,57.204 				"/>
			</g>
			<g>
				<polygon style="fill:#A7A9AC;" points="293.003,58.671 279.463,66.521 279.463,87.087 293.003,79.269 				"/>
				<polygon style="fill:#535359;" points="286.332,83.121 286.134,83.235 286.134,62.653 286.332,62.539 				"/>
				<g>
					<path style="fill:#303033;" d="M281.02,72.197c-0.35,0.201-0.479,0-0.29-0.449l1.828-4.326c0.19-0.448,0.501-0.628,0.69-0.398
						l1.828,2.214c0.19,0.23,0.06,0.583-0.291,0.785L281.02,72.197z"/>
					<path style="fill:#FF9D26;" d="M280.839,72.013c0.015,0.023,0.072,0.026,0.181-0.038l3.765-2.173
						c0.11-0.063,0.166-0.132,0.182-0.17c0.015-0.039,0.01-0.111-0.052-0.183l-1.826-2.213c-0.056-0.066-0.123-0.083-0.186-0.048
						c-0.063,0.037-0.13,0.132-0.184,0.261l-1.828,4.325C280.83,71.915,280.825,71.992,280.839,72.013z"/>
					<polygon style="fill:#303033;" points="283.409,69.243 282.94,69.3 283.335,67.921 282.396,69.622 282.864,69.565
						282.471,70.944 					"/>
				</g>
				<g>
					<polygon style="fill:#E6E7E8;" points="285.81,73.023 285.349,73.289 285.353,75.552 285.813,75.286 					"/>
					<polygon style="fill:#FFFFFF;" points="285.575,72.887 285.115,73.153 285.349,73.289 285.81,73.023 					"/>
					<polygon style="fill:#BCBEC0;" points="285.353,75.552 285.349,73.289 285.115,73.153 285.115,75.414 					"/>
				</g>
				<g>
					<polygon style="fill:#E6E7E8;" points="287.541,72.024 287.081,72.289 287.084,74.552 287.544,74.287 					"/>
					<polygon style="fill:#FFFFFF;" points="287.305,71.888 286.845,72.153 287.081,72.289 287.541,72.024 					"/>
					<polygon style="fill:#BCBEC0;" points="287.084,74.552 287.081,72.289 286.845,72.153 286.845,74.415 					"/>
				</g>
			</g>
			<g>
				<polygon style="fill:#D1D3D4;" points="256.574,54.153 272.702,63.495 272.702,84.062 256.574,74.751 				"/>
				<g>
					<path style="fill:#303033;" d="M267.425,67.019c-0.354-0.205-0.486-0.562-0.294-0.794l1.85-2.242
						c0.192-0.232,0.506-0.051,0.698,0.403l1.853,4.379c0.19,0.455,0.058,0.659-0.295,0.455L267.425,67.019z"/>
					<path style="fill:#FF9D26;" d="M267.243,66.623c0.015,0.04,0.07,0.108,0.182,0.172l3.813,2.201
						c0.111,0.064,0.166,0.062,0.183,0.039c0.014-0.022,0.009-0.1-0.052-0.243l-1.851-4.379c-0.055-0.131-0.122-0.227-0.188-0.263
						c-0.063-0.037-0.13-0.02-0.186,0.047l-1.85,2.242C267.232,66.512,267.228,66.584,267.243,66.623z"/>
					<polygon style="fill:#303033;" points="269.76,66.664 269.314,66.204 269.689,65.328 268.797,65.913 269.241,66.373
						268.869,67.249 					"/>
				</g>
				<polygon style="fill:#BCBEC0;" points="257.112,55.361 265.8,60.407 265.8,79.122 257.112,74.106 				"/>
				<path style="fill:#303033;" d="M262.305,60.757l-1.978-1.143c-0.045-0.026-0.082-0.004-0.082,0.048
					c0,0.052,0.037,0.116,0.082,0.143l1.978,1.142c0.046,0.026,0.082,0.005,0.082-0.047
					C262.387,60.847,262.351,60.784,262.305,60.757z"/>
				<path style="fill:#303033;" d="M262.305,61.374l-1.978-1.143c-0.045-0.026-0.082-0.005-0.082,0.047
					c0,0.053,0.037,0.116,0.082,0.142l1.978,1.143c0.046,0.026,0.082,0.005,0.082-0.047C262.387,61.463,262.351,61.4,262.305,61.374
					z"/>
				<path style="fill:#303033;" d="M262.305,61.99l-1.978-1.142c-0.045-0.026-0.082-0.005-0.082,0.047
					c0,0.052,0.037,0.116,0.082,0.142l1.978,1.143c0.046,0.026,0.082,0.005,0.082-0.047C262.387,62.08,262.351,62.017,262.305,61.99
					z"/>
				<path style="fill:#303033;" d="M262.305,62.606l-1.978-1.142c-0.045-0.025-0.082-0.005-0.082,0.048
					c0,0.051,0.037,0.115,0.082,0.142l1.978,1.142c0.046,0.026,0.082,0.005,0.082-0.048
					C262.387,62.697,262.351,62.633,262.305,62.606z"/>
				<g>
					<polygon style="fill:#E6E7E8;" points="264.019,68.637 264.479,68.902 264.477,71.166 264.015,70.901 					"/>
					<polygon style="fill:#FFFFFF;" points="264.256,68.501 264.716,68.767 264.479,68.902 264.019,68.637 					"/>
					<polygon style="fill:#A7A9AC;" points="264.477,71.166 264.479,68.902 264.716,68.767 264.716,71.028 					"/>
				</g>
				<g>
					<polygon style="fill:#BCBEC0;" points="269.737,80.772 269.737,70.826 266.732,69.098 266.732,79.046 					"/>
					<polygon style="fill:#E6E7E8;" points="268.935,73.474 267.537,72.666 267.537,70.583 268.935,71.389 					"/>
					<polygon style="fill:#A7A9AC;" points="270.731,80.211 270.731,70.264 269.737,70.826 269.737,80.772 					"/>
					<polygon style="fill:#E6E7E8;" points="266.732,69.098 269.737,70.826 270.731,70.264 267.732,68.533 					"/>
				</g>
			</g>
		</g>
		<g>
			<g>
				<polygon style="fill:#E6E7E8;" points="274.453,43.52 265.069,48.959 267.328,50.833 271.458,48.674 276.954,44.963 				"/>
				<polygon style="fill:#A7A9AC;" points="276.954,44.963 267.572,50.403 267.572,53.358 272.263,49.138 276.954,47.919 				"/>
				<polygon style="fill:#D1D3D4;" points="267.572,53.358 265.069,51.915 265.069,48.959 267.572,50.403 				"/>
			</g>
			<g>
				<polygon style="fill:#2B5E85;" points="268.12,50.72 264.595,48.685 264.595,33.764 271.091,34.483 				"/>
				<polygon style="fill:#3576AB;" points="273.977,28.325 264.595,33.764 268.12,35.799 271.223,35.126 277.502,30.36 				"/>
				<polygon style="fill:#174666;" points="277.502,30.36 268.12,35.799 268.12,50.72 277.502,45.28 				"/>
				<polygon style="fill:#A7A9AC;" points="276.858,31.76 268.765,36.451 268.765,49.32 276.858,44.629 				"/>
				<g>
					<path style="fill:#303033;" d="M271.086,41.766c-0.348,0.201-0.479,0-0.29-0.449l1.828-4.326
						c0.19-0.449,0.502-0.628,0.69-0.398l1.829,2.213c0.189,0.23,0.059,0.583-0.292,0.786L271.086,41.766z"/>
					<path style="fill:#FF9D26;" d="M270.907,41.583c0.015,0.022,0.071,0.025,0.179-0.038l3.766-2.173
						c0.11-0.063,0.166-0.132,0.18-0.17c0.015-0.039,0.011-0.11-0.049-0.183l-1.828-2.214c-0.055-0.066-0.122-0.083-0.184-0.046
						c-0.064,0.036-0.131,0.131-0.186,0.259l-1.829,4.326C270.898,41.484,270.893,41.561,270.907,41.583z"/>
					<polygon style="fill:#303033;" points="273.477,38.812 273.008,38.869 273.401,37.49 272.46,39.191 272.931,39.134
						272.537,40.514 					"/>
				</g>
				<g>
					<g>
						<path style="fill:#939598;" d="M276.708,34.385c0.082,0.049,0.218,0.049,0.301,0c0.041-0.024,0.06-0.055,0.06-0.087v0.062
							c0,0.031-0.019,0.063-0.06,0.087c-0.083,0.048-0.219,0.048-0.301,0c-0.042-0.024-0.063-0.056-0.063-0.087v-0.062
							C276.646,34.33,276.666,34.361,276.708,34.385z"/>
						<path style="fill:#BCBEC0;" d="M276.708,34.211c0.082-0.048,0.218-0.048,0.301,0c0.081,0.048,0.081,0.126,0,0.173
							c-0.083,0.049-0.219,0.049-0.301,0C276.624,34.337,276.624,34.26,276.708,34.211z"/>
					</g>
					<g>
						<path style="fill:#BCBEC0;" d="M276.685,33.251c0.096,0.055,0.249,0.055,0.346,0c0.047-0.027,0.071-0.063,0.071-0.099v1.161
							c0,0.037-0.025,0.072-0.071,0.1c-0.097,0.055-0.25,0.055-0.346,0c-0.047-0.028-0.07-0.063-0.07-0.1v-1.161
							C276.614,33.188,276.638,33.224,276.685,33.251z"/>
						<path style="fill:#E6E7E8;" d="M276.685,33.053c0.096-0.055,0.249-0.055,0.346,0c0.094,0.055,0.094,0.144,0,0.199
							c-0.097,0.055-0.25,0.055-0.346,0C276.59,33.196,276.59,33.108,276.685,33.053z"/>
					</g>
					<g>
						<path style="fill:#BCBEC0;" d="M276.708,33.168c0.082,0.048,0.218,0.048,0.301,0c0.041-0.024,0.06-0.055,0.06-0.086v0.062
							c0,0.031-0.019,0.063-0.06,0.086c-0.083,0.048-0.219,0.048-0.301,0c-0.042-0.024-0.063-0.056-0.063-0.086v-0.062
							C276.646,33.113,276.666,33.144,276.708,33.168z"/>
						<path style="fill:#E6E7E8;" d="M276.708,32.996c0.082-0.049,0.218-0.049,0.301,0c0.081,0.047,0.081,0.125,0,0.172
							c-0.083,0.048-0.219,0.048-0.301,0C276.624,33.121,276.624,33.042,276.708,32.996z"/>
					</g>
				</g>
				<g>
					<g>
						<path style="fill:#939598;" d="M276.708,43.49c0.082,0.048,0.218,0.048,0.301,0c0.041-0.024,0.06-0.055,0.06-0.087v0.061
							c0,0.032-0.019,0.063-0.06,0.087c-0.083,0.048-0.219,0.048-0.301,0c-0.042-0.024-0.063-0.055-0.063-0.087v-0.061
							C276.646,43.435,276.666,43.465,276.708,43.49z"/>
						<path style="fill:#BCBEC0;" d="M276.708,43.316c0.082-0.047,0.218-0.047,0.301,0c0.081,0.048,0.081,0.125,0,0.174
							c-0.083,0.048-0.219,0.048-0.301,0C276.624,43.441,276.624,43.364,276.708,43.316z"/>
					</g>
					<g>
						<path style="fill:#BCBEC0;" d="M276.685,42.355c0.096,0.056,0.249,0.056,0.346,0c0.047-0.027,0.071-0.063,0.071-0.099v1.162
							c0,0.036-0.025,0.072-0.071,0.1c-0.097,0.055-0.25,0.055-0.346,0c-0.047-0.028-0.07-0.064-0.07-0.1v-1.162
							C276.614,42.292,276.638,42.329,276.685,42.355z"/>
						<path style="fill:#E6E7E8;" d="M276.685,42.157c0.096-0.056,0.249-0.056,0.346,0c0.094,0.054,0.094,0.144,0,0.198
							c-0.097,0.056-0.25,0.056-0.346,0C276.59,42.301,276.59,42.211,276.685,42.157z"/>
					</g>
					<g>
						<path style="fill:#BCBEC0;" d="M276.708,42.273c0.082,0.047,0.218,0.047,0.301,0c0.041-0.024,0.06-0.056,0.06-0.087v0.062
							c0,0.031-0.019,0.063-0.06,0.086c-0.083,0.048-0.219,0.048-0.301,0c-0.042-0.023-0.063-0.055-0.063-0.086v-0.062
							C276.646,42.217,276.666,42.249,276.708,42.273z"/>
						<path style="fill:#E6E7E8;" d="M276.708,42.099c0.082-0.047,0.218-0.047,0.301,0c0.081,0.048,0.081,0.126,0,0.174
							c-0.083,0.047-0.219,0.047-0.301,0C276.624,42.225,276.624,42.147,276.708,42.099z"/>
					</g>
				</g>
			</g>
			<g>
				<g>
					<path style="fill:#939598;" d="M273.621,30.43c0.23,0.133,0.603,0.133,0.832,0c0.116-0.066,0.173-0.153,0.173-0.241v0.171
						c0,0.087-0.057,0.173-0.173,0.24c-0.229,0.133-0.602,0.133-0.832,0c-0.114-0.066-0.171-0.153-0.171-0.24V30.19
						C273.45,30.277,273.507,30.364,273.621,30.43z"/>
					<path style="fill:#BCBEC0;" d="M273.621,29.95c0.23-0.132,0.603-0.132,0.832,0c0.23,0.132,0.23,0.347,0,0.48
						c-0.229,0.133-0.602,0.133-0.832,0C273.393,30.297,273.393,30.083,273.621,29.95z"/>
				</g>
				<g>
					<path style="fill:#A7A9AC;" d="M273.56,30.294c0.264,0.153,0.692,0.153,0.956,0c0.13-0.076,0.195-0.175,0.195-0.275v0.214
						c0,0.1-0.065,0.2-0.195,0.277c-0.265,0.152-0.692,0.152-0.956,0c-0.132-0.077-0.197-0.177-0.197-0.277v-0.214
						C273.363,30.119,273.429,30.218,273.56,30.294z"/>
					<path style="fill:#E6E7E8;" d="M273.56,29.743c0.264-0.153,0.692-0.153,0.956,0c0.263,0.152,0.263,0.399,0,0.551
						c-0.265,0.153-0.692,0.153-0.956,0C273.298,30.143,273.298,29.895,273.56,29.743z"/>
				</g>
				<g>
					<path style="fill:#939598;" d="M273.621,30.065c0.23,0.133,0.603,0.133,0.832,0c0.116-0.067,0.173-0.153,0.173-0.24v0.17
						c0,0.086-0.057,0.173-0.173,0.24c-0.229,0.132-0.602,0.132-0.832,0c-0.114-0.067-0.171-0.154-0.171-0.24v-0.17
						C273.45,29.912,273.507,29.998,273.621,30.065z"/>
					<path style="fill:#BCBEC0;" d="M273.621,29.585c0.23-0.133,0.603-0.133,0.832,0c0.23,0.132,0.23,0.347,0,0.48
						c-0.229,0.133-0.602,0.133-0.832,0C273.393,29.932,273.393,29.717,273.621,29.585z"/>
				</g>
				<g>
					<path style="fill:#A7A9AC;" d="M273.56,29.929c0.264,0.152,0.692,0.152,0.956,0c0.13-0.076,0.195-0.176,0.195-0.276v0.215
						c0,0.1-0.065,0.2-0.195,0.276c-0.265,0.152-0.692,0.152-0.956,0c-0.132-0.076-0.197-0.176-0.197-0.276v-0.215
						C273.363,29.752,273.429,29.853,273.56,29.929z"/>
					<path style="fill:#E6E7E8;" d="M273.56,29.377c0.264-0.151,0.692-0.151,0.956,0c0.263,0.152,0.263,0.399,0,0.552
						c-0.265,0.152-0.692,0.152-0.956,0C273.298,29.776,273.298,29.529,273.56,29.377z"/>
				</g>
				<g>
					<path style="fill:#939598;" d="M273.621,29.7c0.23,0.132,0.603,0.132,0.833,0c0.115-0.068,0.172-0.154,0.172-0.24v0.169
						c0,0.087-0.057,0.174-0.172,0.241c-0.23,0.132-0.603,0.132-0.833,0c-0.114-0.067-0.17-0.154-0.17-0.241v-0.169
						C273.451,29.546,273.507,29.632,273.621,29.7z"/>
					<path style="fill:#BCBEC0;" d="M273.621,29.219c0.23-0.132,0.603-0.132,0.833,0c0.229,0.133,0.229,0.348,0,0.481
						c-0.23,0.132-0.603,0.132-0.833,0C273.393,29.566,273.393,29.352,273.621,29.219z"/>
				</g>
				<g>
					<path style="fill:#A7A9AC;" d="M273.56,29.563c0.264,0.152,0.692,0.152,0.956,0c0.131-0.076,0.196-0.176,0.196-0.275v0.214
						c0,0.1-0.065,0.2-0.196,0.276c-0.265,0.152-0.692,0.152-0.956,0c-0.132-0.076-0.197-0.176-0.197-0.276v-0.214
						C273.363,29.387,273.429,29.487,273.56,29.563z"/>
					<path style="fill:#E6E7E8;" d="M273.56,29.011c0.264-0.152,0.692-0.152,0.956,0c0.264,0.152,0.264,0.399,0,0.551
						c-0.265,0.152-0.692,0.152-0.956,0C273.298,29.41,273.298,29.164,273.56,29.011z"/>
				</g>
				<g>
					<path style="fill:#A7A9AC;" d="M273.621,29.331c0.23,0.133,0.603,0.133,0.833,0c0.115-0.066,0.172-0.153,0.172-0.24v0.169
						c0,0.087-0.057,0.174-0.172,0.24c-0.23,0.133-0.603,0.133-0.833,0c-0.114-0.066-0.17-0.153-0.17-0.24v-0.17
						C273.451,29.179,273.507,29.265,273.621,29.331z"/>
					<path style="fill:#E6E7E8;" d="M273.621,28.852c0.23-0.133,0.603-0.133,0.833,0c0.229,0.131,0.229,0.347,0,0.479
						c-0.23,0.133-0.603,0.133-0.833,0C273.393,29.199,273.393,28.983,273.621,28.852z"/>
				</g>
				<g>
					<path style="fill:#303033;" d="M273.904,28.795c0.073,0.042,0.193,0.042,0.269,0c0.037-0.022,0.055-0.05,0.055-0.078v0.361
						c0,0.027-0.017,0.056-0.055,0.077c-0.075,0.043-0.194,0.043-0.269,0c-0.038-0.021-0.057-0.05-0.057-0.077v-0.361
						C273.848,28.745,273.866,28.773,273.904,28.795z"/>
					<path style="fill:#535359;" d="M273.904,28.639c0.073-0.043,0.193-0.043,0.269,0c0.072,0.043,0.072,0.112,0,0.156
						c-0.075,0.042-0.195,0.042-0.269,0C273.83,28.751,273.83,28.683,273.904,28.639z"/>
				</g>
				<path style="fill:#121214;" d="M273.956,28.694c-0.007-0.014-0.01-0.031-0.007-0.047l0.462-3.299
					c0.006-0.051,0.053-0.087,0.105-0.08c0.05,0.007,0.086,0.054,0.079,0.105l-0.461,3.298c-0.008,0.051-0.055,0.087-0.105,0.08
					C273.994,28.746,273.968,28.724,273.956,28.694z"/>
			</g>
			<g>
				<g>
					<path style="fill:#939598;" d="M270.634,32.156c0.229,0.133,0.603,0.133,0.832,0c0.114-0.065,0.173-0.153,0.173-0.24v0.17
						c0,0.088-0.059,0.173-0.173,0.24c-0.229,0.133-0.603,0.133-0.832,0c-0.114-0.067-0.172-0.153-0.172-0.24v-0.17
						C270.462,32.002,270.52,32.09,270.634,32.156z"/>
					<path style="fill:#BCBEC0;" d="M270.634,31.675c0.229-0.132,0.603-0.132,0.832,0c0.229,0.133,0.229,0.348,0,0.48
						c-0.229,0.133-0.603,0.133-0.832,0C270.404,32.023,270.404,31.809,270.634,31.675z"/>
				</g>
				<g>
					<path style="fill:#A7A9AC;" d="M270.572,32.02c0.262,0.152,0.691,0.152,0.954,0c0.133-0.076,0.198-0.176,0.198-0.276v0.215
						c0,0.1-0.065,0.2-0.198,0.275c-0.263,0.153-0.692,0.153-0.954,0c-0.131-0.076-0.197-0.176-0.197-0.275v-0.215
						C270.375,31.844,270.441,31.944,270.572,32.02z"/>
					<path style="fill:#E6E7E8;" d="M270.572,31.468c0.262-0.152,0.691-0.152,0.954,0c0.266,0.152,0.266,0.399,0,0.552
						c-0.263,0.152-0.692,0.152-0.954,0C270.308,31.868,270.307,31.621,270.572,31.468z"/>
				</g>
				<g>
					<path style="fill:#939598;" d="M270.634,31.79c0.229,0.133,0.603,0.133,0.832,0c0.114-0.066,0.173-0.153,0.173-0.24v0.17
						c0,0.087-0.059,0.173-0.173,0.24c-0.229,0.133-0.603,0.133-0.832,0c-0.114-0.066-0.172-0.153-0.172-0.24v-0.17
						C270.462,31.637,270.52,31.724,270.634,31.79z"/>
					<path style="fill:#BCBEC0;" d="M270.634,31.31c0.229-0.132,0.603-0.132,0.832,0c0.229,0.132,0.229,0.347,0,0.48
						c-0.229,0.133-0.603,0.133-0.832,0C270.404,31.657,270.404,31.442,270.634,31.31z"/>
				</g>
				<g>
					<path style="fill:#A7A9AC;" d="M270.572,31.654c0.262,0.152,0.691,0.152,0.954,0c0.133-0.076,0.198-0.176,0.198-0.275v0.214
						c0,0.1-0.065,0.2-0.198,0.276c-0.263,0.152-0.692,0.152-0.954,0c-0.131-0.076-0.197-0.176-0.197-0.276v-0.214
						C270.375,31.478,270.441,31.578,270.572,31.654z"/>
					<path style="fill:#E6E7E8;" d="M270.572,31.103c0.262-0.152,0.691-0.152,0.954,0c0.266,0.152,0.266,0.4,0,0.551
						c-0.263,0.152-0.692,0.152-0.954,0C270.308,31.502,270.307,31.255,270.572,31.103z"/>
				</g>
				<g>
					<path style="fill:#939598;" d="M270.634,31.424c0.229,0.133,0.603,0.133,0.832,0c0.114-0.067,0.173-0.153,0.173-0.239v0.169
						c0,0.087-0.059,0.174-0.173,0.24c-0.229,0.133-0.603,0.133-0.832,0c-0.114-0.066-0.172-0.153-0.172-0.24v-0.169
						C270.462,31.271,270.52,31.357,270.634,31.424z"/>
					<path style="fill:#BCBEC0;" d="M270.634,30.944c0.229-0.133,0.603-0.133,0.832,0c0.229,0.132,0.229,0.348,0,0.48
						c-0.229,0.133-0.603,0.133-0.832,0C270.404,31.292,270.404,31.077,270.634,30.944z"/>
				</g>
				<g>
					<path style="fill:#A7A9AC;" d="M270.572,31.288c0.262,0.153,0.691,0.153,0.954,0c0.133-0.076,0.198-0.176,0.198-0.275v0.214
						c0,0.1-0.065,0.2-0.198,0.276c-0.263,0.152-0.692,0.152-0.954,0c-0.131-0.077-0.197-0.176-0.197-0.276v-0.214
						C270.375,31.112,270.441,31.212,270.572,31.288z"/>
					<path style="fill:#E6E7E8;" d="M270.572,30.737c0.262-0.152,0.691-0.152,0.954,0c0.266,0.152,0.266,0.399,0,0.551
						c-0.263,0.153-0.692,0.153-0.954,0C270.308,31.136,270.308,30.889,270.572,30.737z"/>
				</g>
				<g>
					<path style="fill:#A7A9AC;" d="M270.634,31.057c0.229,0.133,0.603,0.133,0.832,0c0.114-0.066,0.173-0.153,0.173-0.24v0.169
						c0,0.087-0.059,0.174-0.173,0.24c-0.229,0.133-0.603,0.133-0.832,0c-0.114-0.066-0.172-0.153-0.172-0.24v-0.169
						C270.462,30.904,270.52,30.991,270.634,31.057z"/>
					<path style="fill:#E6E7E8;" d="M270.634,30.577c0.229-0.132,0.603-0.132,0.832,0c0.229,0.133,0.229,0.348,0,0.48
						c-0.229,0.133-0.603,0.133-0.832,0C270.404,30.925,270.404,30.71,270.634,30.577z"/>
				</g>
				<g>
					<path style="fill:#303033;" d="M270.915,30.52c0.074,0.042,0.193,0.042,0.268,0c0.037-0.021,0.057-0.05,0.057-0.078v0.361
						c0,0.027-0.02,0.056-0.057,0.078c-0.074,0.042-0.193,0.042-0.268,0c-0.036-0.021-0.056-0.05-0.055-0.078v-0.361
						C270.86,30.47,270.879,30.499,270.915,30.52z"/>
					<path style="fill:#535359;" d="M270.915,30.365c0.074-0.043,0.193-0.043,0.268,0c0.075,0.042,0.075,0.112,0,0.155
						c-0.074,0.042-0.193,0.042-0.268,0C270.841,30.477,270.841,30.407,270.915,30.365z"/>
				</g>
				<path style="fill:#121214;" d="M270.967,30.419c-0.007-0.014-0.009-0.031-0.006-0.047l0.461-3.299
					c0.007-0.051,0.055-0.087,0.105-0.08c0.052,0.007,0.086,0.054,0.08,0.105l-0.462,3.298c-0.008,0.051-0.055,0.086-0.105,0.08
					C271.007,30.472,270.978,30.449,270.967,30.419z"/>
			</g>
			<g>
				<g>
					<path style="fill:#939598;" d="M267.644,33.881c0.231,0.133,0.603,0.133,0.833,0c0.114-0.066,0.172-0.153,0.172-0.24v0.17
						c0,0.087-0.058,0.173-0.172,0.24c-0.23,0.133-0.602,0.133-0.833,0c-0.114-0.067-0.171-0.153-0.171-0.24v-0.17
						C267.473,33.729,267.529,33.815,267.644,33.881z"/>
					<path style="fill:#BCBEC0;" d="M267.644,33.401c0.231-0.132,0.603-0.132,0.833,0c0.229,0.132,0.229,0.348,0,0.48
						c-0.23,0.133-0.602,0.133-0.833,0C267.415,33.75,267.415,33.534,267.644,33.401z"/>
				</g>
				<g>
					<path style="fill:#A7A9AC;" d="M267.584,33.746c0.264,0.152,0.69,0.152,0.955,0c0.131-0.077,0.196-0.177,0.196-0.277v0.215
						c0,0.1-0.065,0.2-0.196,0.275c-0.265,0.153-0.691,0.153-0.955,0c-0.132-0.076-0.199-0.175-0.199-0.275v-0.215
						C267.385,33.569,267.452,33.669,267.584,33.746z"/>
					<path style="fill:#E6E7E8;" d="M267.584,33.194c0.264-0.152,0.69-0.152,0.955,0c0.263,0.152,0.263,0.399,0,0.552
						c-0.265,0.152-0.691,0.152-0.955,0C267.319,33.593,267.318,33.346,267.584,33.194z"/>
				</g>
				<g>
					<path style="fill:#939598;" d="M267.644,33.516c0.231,0.133,0.603,0.133,0.833,0c0.114-0.066,0.172-0.153,0.172-0.24v0.17
						c0,0.087-0.058,0.174-0.172,0.239c-0.23,0.134-0.602,0.134-0.833,0c-0.114-0.065-0.171-0.152-0.171-0.239v-0.17
						C267.473,33.362,267.529,33.45,267.644,33.516z"/>
					<path style="fill:#BCBEC0;" d="M267.644,33.035c0.231-0.132,0.603-0.132,0.833,0c0.229,0.133,0.229,0.348,0,0.48
						c-0.23,0.133-0.602,0.133-0.833,0C267.415,33.383,267.415,33.168,267.644,33.035z"/>
				</g>
				<g>
					<path style="fill:#A7A9AC;" d="M267.584,33.38c0.264,0.152,0.69,0.152,0.955,0c0.131-0.077,0.196-0.176,0.196-0.276v0.214
						c0,0.1-0.065,0.2-0.196,0.276c-0.265,0.153-0.691,0.153-0.955,0c-0.132-0.076-0.199-0.176-0.199-0.276v-0.214
						C267.385,33.204,267.452,33.303,267.584,33.38z"/>
					<path style="fill:#E6E7E8;" d="M267.584,32.828c0.264-0.152,0.69-0.152,0.955,0c0.263,0.152,0.263,0.399,0,0.552
						c-0.265,0.152-0.691,0.152-0.955,0C267.319,33.228,267.318,32.98,267.584,32.828z"/>
				</g>
				<g>
					<path style="fill:#939598;" d="M267.644,33.15c0.232,0.132,0.604,0.132,0.834,0c0.113-0.067,0.172-0.153,0.172-0.241v0.17
						c0,0.087-0.059,0.173-0.172,0.24c-0.23,0.133-0.601,0.133-0.834,0c-0.114-0.066-0.171-0.153-0.171-0.24v-0.17
						C267.473,32.997,267.529,33.083,267.644,33.15z"/>
					<path style="fill:#BCBEC0;" d="M267.644,32.67c0.232-0.132,0.604-0.132,0.834,0c0.229,0.132,0.229,0.347,0,0.48
						c-0.23,0.132-0.601,0.132-0.834,0C267.415,33.017,267.415,32.802,267.644,32.67z"/>
				</g>
				<g>
					<path style="fill:#A7A9AC;" d="M267.584,33.014c0.264,0.153,0.691,0.153,0.955,0c0.131-0.076,0.196-0.176,0.196-0.275v0.214
						c0,0.1-0.065,0.2-0.196,0.276c-0.264,0.152-0.691,0.152-0.955,0c-0.132-0.076-0.199-0.176-0.199-0.276v-0.214
						C267.385,32.838,267.452,32.938,267.584,33.014z"/>
					<path style="fill:#E6E7E8;" d="M267.584,32.462c0.264-0.152,0.691-0.152,0.955,0c0.264,0.152,0.264,0.399,0,0.551
						c-0.264,0.153-0.691,0.153-0.955,0C267.319,32.861,267.318,32.615,267.584,32.462z"/>
				</g>
				<g>
					<path style="fill:#A7A9AC;" d="M267.644,32.783c0.232,0.133,0.604,0.133,0.834,0c0.113-0.066,0.172-0.153,0.172-0.24v0.169
						c0,0.087-0.059,0.175-0.172,0.24c-0.23,0.133-0.601,0.133-0.834,0c-0.114-0.065-0.171-0.153-0.171-0.24v-0.169
						C267.473,32.63,267.529,32.717,267.644,32.783z"/>
					<path style="fill:#E6E7E8;" d="M267.644,32.303c0.232-0.133,0.604-0.133,0.834,0c0.229,0.133,0.229,0.347,0,0.48
						c-0.23,0.133-0.601,0.133-0.834,0C267.415,32.65,267.415,32.436,267.644,32.303z"/>
				</g>
				<g>
					<path style="fill:#303033;" d="M267.927,32.246c0.073,0.042,0.194,0.042,0.268,0c0.038-0.022,0.056-0.049,0.056-0.077v0.36
						c0,0.028-0.02,0.056-0.056,0.078c-0.073,0.042-0.194,0.042-0.268,0c-0.036-0.022-0.056-0.05-0.056-0.078v-0.36
						C267.871,32.196,267.891,32.224,267.927,32.246z"/>
					<path style="fill:#535359;" d="M267.927,32.091c0.073-0.043,0.194-0.043,0.268,0c0.074,0.042,0.074,0.112,0,0.155
						c-0.073,0.042-0.194,0.042-0.268,0C267.853,32.203,267.853,32.133,267.927,32.091z"/>
				</g>
				<path style="fill:#121214;" d="M267.978,32.145c-0.006-0.015-0.009-0.031-0.006-0.047l0.461-3.299
					c0.006-0.051,0.054-0.087,0.105-0.08c0.05,0.008,0.086,0.055,0.08,0.105l-0.463,3.299c-0.006,0.051-0.053,0.087-0.104,0.079
					C268.018,32.198,267.989,32.175,267.978,32.145z"/>
			</g>
			<g>
				<polygon style="fill:#E6E7E8;" points="265.98,29.555 265.98,34.564 266.367,34.789 266.625,33.741 266.625,29.915
					274.718,25.223 274.718,29.499 275.105,29.722 275.452,27.525 275.75,24.339 275.364,24.116 				"/>
				<polygon style="fill:#A7A9AC;" points="266.367,29.779 266.367,34.789 267.014,34.414 267.014,30.138 275.105,25.446
					275.105,29.722 275.75,29.349 275.75,24.339 				"/>
			</g>
			<g>
				<g>
					<g>
						<g>
							<path style="fill:#E6E7E8;" d="M266.56,28.639c0.327-0.19,0.86-0.19,1.19,0c0.327,0.19,0.327,0.497,0,0.687
								c-0.329,0.189-0.862,0.189-1.19,0C266.232,29.136,266.232,28.829,266.56,28.639z"/>
						</g>
						<g>
							<path style="fill:#303033;" d="M268.072,28.981v0.086c0,0.135-0.09,0.271-0.27,0.374c-0.356,0.206-0.938,0.206-1.296,0
								c-0.18-0.104-0.27-0.239-0.269-0.374v-0.086C266.238,29.117,268.072,29.117,268.072,28.981z"/>
							<path style="fill:#535359;" d="M266.507,28.607c0.357-0.206,0.939-0.206,1.296,0c0.359,0.207,0.359,0.543,0,0.749
								c-0.356,0.206-0.938,0.206-1.296,0C266.147,29.149,266.147,28.814,266.507,28.607z"/>
						</g>
						<g>
							<path style="fill:#121214;" d="M266.56,29.083c0.327,0.189,0.86,0.189,1.19,0c0.164-0.095,0.246-0.219,0.246-0.344v0.243
								c0,0.124-0.082,0.249-0.246,0.344c-0.329,0.189-0.862,0.189-1.19,0c-0.164-0.095-0.247-0.22-0.247-0.344v-0.243
								C266.314,28.864,266.396,28.988,266.56,29.083z"/>
							<path style="fill:#E6E7E8;" d="M266.56,28.396c0.327-0.19,0.86-0.19,1.19,0c0.327,0.189,0.327,0.496,0,0.687
								c-0.329,0.189-0.862,0.189-1.19,0C266.232,28.893,266.232,28.585,266.56,28.396z"/>
						</g>
						<g>
							<path style="fill:#303033;" d="M268.072,28.739v0.085c0,0.136-0.09,0.272-0.27,0.375c-0.356,0.207-0.938,0.207-1.296,0
								c-0.18-0.103-0.27-0.239-0.269-0.375v-0.085C266.238,28.875,268.072,28.875,268.072,28.739z"/>
							<path style="fill:#535359;" d="M266.507,28.364c0.357-0.207,0.939-0.207,1.296,0c0.359,0.208,0.359,0.542,0,0.749
								c-0.356,0.208-0.938,0.208-1.296,0C266.147,28.907,266.147,28.572,266.507,28.364z"/>
						</g>
						<g>
							<path style="fill:#121214;" d="M266.56,28.84c0.327,0.189,0.86,0.189,1.19,0c0.164-0.095,0.246-0.22,0.246-0.343v0.243
								c0,0.124-0.082,0.249-0.246,0.343c-0.329,0.189-0.862,0.189-1.19,0c-0.164-0.095-0.247-0.22-0.247-0.343v-0.243
								C266.314,28.621,266.396,28.745,266.56,28.84z"/>
							<path style="fill:#E6E7E8;" d="M266.56,28.154c0.327-0.19,0.86-0.19,1.19,0c0.327,0.189,0.327,0.497,0,0.687
								c-0.329,0.189-0.862,0.189-1.19,0C266.232,28.651,266.232,28.343,266.56,28.154z"/>
						</g>
						<g>
							<path style="fill:#303033;" d="M268.072,28.496v0.085c0,0.136-0.09,0.272-0.27,0.375c-0.356,0.207-0.938,0.207-1.296,0
								c-0.18-0.103-0.27-0.239-0.269-0.375v-0.085C266.238,28.632,268.072,28.632,268.072,28.496z"/>
							<path style="fill:#535359;" d="M266.507,28.122c0.357-0.207,0.939-0.207,1.296,0c0.359,0.206,0.359,0.542,0,0.748
								c-0.356,0.207-0.938,0.207-1.296,0C266.147,28.664,266.147,28.329,266.507,28.122z"/>
						</g>
						<g>
							<path style="fill:#121214;" d="M266.56,28.575c0.328,0.189,0.861,0.189,1.19,0c0.164-0.095,0.246-0.219,0.246-0.344v0.243
								c0,0.124-0.082,0.249-0.246,0.343c-0.328,0.189-0.861,0.189-1.19,0c-0.163-0.095-0.246-0.219-0.246-0.343v-0.243
								C266.314,28.356,266.397,28.48,266.56,28.575z"/>
							<path style="fill:#E6E7E8;" d="M266.56,27.889c0.328-0.191,0.861-0.191,1.19,0c0.327,0.189,0.327,0.497,0,0.686
								c-0.328,0.189-0.861,0.189-1.19,0C266.232,28.385,266.232,28.078,266.56,27.889z"/>
						</g>
						<g>
							<path style="fill:#303033;" d="M268.072,28.231v0.086c0,0.135-0.09,0.271-0.269,0.373c-0.357,0.207-0.939,0.207-1.297,0
								c-0.18-0.103-0.269-0.239-0.269-0.373v-0.086C266.238,28.367,268.072,28.367,268.072,28.231z"/>
							<path style="fill:#535359;" d="M266.507,27.856c0.357-0.205,0.939-0.205,1.297,0c0.358,0.207,0.358,0.542,0,0.749
								c-0.357,0.207-0.939,0.207-1.297,0C266.148,28.398,266.148,28.063,266.507,27.856z"/>
						</g>
						<g>
							<path style="fill:#121214;" d="M266.56,28.332c0.328,0.19,0.861,0.19,1.19,0c0.164-0.094,0.246-0.219,0.246-0.343v0.243
								c0,0.125-0.082,0.249-0.246,0.343c-0.328,0.19-0.861,0.19-1.19,0c-0.163-0.094-0.246-0.219-0.246-0.343v-0.243
								C266.314,28.113,266.397,28.238,266.56,28.332z"/>
							<path style="fill:#E6E7E8;" d="M266.56,27.646c0.328-0.19,0.861-0.19,1.19,0c0.327,0.189,0.327,0.497,0,0.686
								c-0.328,0.19-0.861,0.19-1.19,0C266.232,28.143,266.232,27.835,266.56,27.646z"/>
						</g>
						<g>
							<path style="fill:#303033;" d="M268.072,27.988v0.085c0,0.135-0.09,0.271-0.269,0.375c-0.357,0.207-0.939,0.207-1.297,0
								c-0.18-0.103-0.269-0.239-0.269-0.375v-0.085C266.238,28.124,268.072,28.124,268.072,27.988z"/>
							<path style="fill:#535359;" d="M266.507,27.614c0.357-0.208,0.939-0.208,1.297,0c0.358,0.207,0.358,0.542,0,0.749
								c-0.357,0.207-0.939,0.207-1.297,0C266.148,28.156,266.148,27.821,266.507,27.614z"/>
						</g>
						<g>
							<path style="fill:#121214;" d="M266.56,28.089c0.328,0.189,0.861,0.189,1.19,0c0.164-0.095,0.246-0.219,0.246-0.343v0.242
								c0,0.124-0.082,0.249-0.246,0.343c-0.328,0.19-0.861,0.19-1.19,0c-0.163-0.094-0.246-0.219-0.246-0.343v-0.242
								C266.314,27.871,266.397,27.995,266.56,28.089z"/>
							<path style="fill:#E6E7E8;" d="M266.56,27.403c0.328-0.189,0.861-0.189,1.19,0c0.327,0.191,0.327,0.498,0,0.687
								c-0.328,0.189-0.861,0.189-1.19,0C266.232,27.901,266.232,27.593,266.56,27.403z"/>
						</g>
						<g>
							<path style="fill:#303033;" d="M268.072,27.746v0.085c0,0.135-0.09,0.271-0.269,0.374c-0.357,0.208-0.939,0.208-1.297,0
								c-0.18-0.102-0.269-0.239-0.269-0.374v-0.085C266.238,27.881,268.072,27.882,268.072,27.746z"/>
							<path style="fill:#535359;" d="M266.507,27.371c0.357-0.206,0.939-0.206,1.297,0c0.358,0.207,0.358,0.542,0,0.749
								c-0.357,0.207-0.939,0.207-1.297,0C266.148,27.913,266.148,27.578,266.507,27.371z"/>
						</g>
						<g>
							<path style="fill:#121214;" d="M266.56,27.847c0.328,0.189,0.861,0.189,1.19,0c0.164-0.095,0.246-0.219,0.246-0.343v0.243
								c0,0.124-0.082,0.248-0.246,0.343c-0.328,0.189-0.861,0.189-1.19,0c-0.163-0.095-0.246-0.219-0.246-0.343v-0.243
								C266.314,27.627,266.397,27.752,266.56,27.847z"/>
							<path style="fill:#E6E7E8;" d="M266.56,27.161c0.328-0.19,0.861-0.19,1.19,0c0.327,0.189,0.327,0.496,0,0.687
								c-0.328,0.189-0.861,0.189-1.19,0C266.232,27.657,266.232,27.35,266.56,27.161z"/>
						</g>
						<g>
							<path style="fill:#303033;" d="M268.072,27.503v0.086c0,0.135-0.09,0.271-0.269,0.375c-0.357,0.206-0.939,0.206-1.297,0
								c-0.18-0.104-0.269-0.239-0.269-0.375v-0.086C266.238,27.639,268.072,27.639,268.072,27.503z"/>
							<path style="fill:#535359;" d="M266.507,27.129c0.357-0.207,0.939-0.207,1.297,0c0.358,0.206,0.358,0.542,0,0.748
								c-0.357,0.206-0.939,0.207-1.297,0C266.148,27.67,266.148,27.335,266.507,27.129z"/>
						</g>
						<g>
							<path style="fill:#A7A9AC;" d="M266.827,26.828c0.172,0.1,0.453,0.1,0.627,0c0.086-0.05,0.131-0.116,0.131-0.181v0.843
								c0,0.065-0.045,0.131-0.131,0.181c-0.174,0.1-0.455,0.1-0.627,0c-0.088-0.049-0.13-0.116-0.13-0.181v-0.843
								C266.697,26.712,266.739,26.777,266.827,26.828z"/>
							<path style="fill:#E6E7E8;" d="M266.827,26.466c0.172-0.1,0.453-0.1,0.627,0c0.173,0.1,0.173,0.262,0,0.362
								c-0.174,0.1-0.455,0.1-0.627,0C266.653,26.728,266.653,26.565,266.827,26.466z"/>
						</g>
						<g>
							<path style="fill:#303033;" d="M267.245,25.571v1.069c0,0.016-0.012,0.031-0.032,0.042c-0.041,0.023-0.105,0.023-0.147,0
								c-0.02-0.011-0.029-0.027-0.029-0.042v-1.069C267.036,25.586,267.245,25.586,267.245,25.571z"/>
							<path style="fill:#535359;" d="M267.065,25.529c0.042-0.024,0.107-0.024,0.147,0c0.042,0.024,0.042,0.062,0,0.085
								c-0.041,0.023-0.105,0.023-0.147,0C267.025,25.59,267.025,25.553,267.065,25.529z"/>
						</g>
					</g>
					<path style="fill:#121214;" d="M267.14,25.665c-0.015,0-0.031-0.004-0.045-0.013l-7.837-4.524
						c-0.046-0.026-0.06-0.083-0.035-0.128c0.026-0.044,0.083-0.06,0.128-0.034l7.836,4.524c0.045,0.025,0.06,0.083,0.035,0.128
						C267.202,25.648,267.171,25.665,267.14,25.665z"/>
				</g>
				<g>
					<g>
						<path style="fill:#E6E7E8;" d="M270.337,26.463c0.329-0.189,0.861-0.189,1.19,0c0.328,0.19,0.328,0.497,0,0.687
							c-0.329,0.189-0.861,0.189-1.19,0C270.01,26.96,270.01,26.653,270.337,26.463z"/>
						<g>
							<path style="fill:#303033;" d="M271.849,26.806v0.085c0,0.135-0.088,0.271-0.268,0.374c-0.358,0.208-0.939,0.208-1.298,0
								c-0.179-0.103-0.269-0.239-0.268-0.374v-0.085C270.016,26.942,271.849,26.942,271.849,26.806z"/>
							<path style="fill:#535359;" d="M270.283,26.432c0.358-0.207,0.939-0.207,1.298,0c0.357,0.207,0.357,0.542,0,0.749
								c-0.358,0.206-0.939,0.206-1.298,0C269.925,26.974,269.925,26.638,270.283,26.432z"/>
						</g>
						<g>
							<path style="fill:#121214;" d="M270.337,26.908c0.329,0.189,0.861,0.189,1.19,0c0.164-0.095,0.246-0.219,0.246-0.344v0.243
								c0,0.125-0.082,0.249-0.246,0.344c-0.329,0.189-0.861,0.189-1.19,0c-0.164-0.095-0.246-0.219-0.246-0.344v-0.243
								C270.091,26.689,270.173,26.813,270.337,26.908z"/>
							<path style="fill:#E6E7E8;" d="M270.337,26.221c0.329-0.19,0.861-0.19,1.19,0c0.328,0.19,0.328,0.497,0,0.687
								c-0.329,0.189-0.861,0.189-1.19,0C270.01,26.717,270.01,26.41,270.337,26.221z"/>
						</g>
						<g>
							<path style="fill:#303033;" d="M271.849,26.563v0.085c0,0.136-0.088,0.272-0.268,0.374c-0.358,0.207-0.939,0.207-1.298,0
								c-0.179-0.103-0.269-0.239-0.268-0.375v-0.085C270.016,26.699,271.849,26.699,271.849,26.563z"/>
							<path style="fill:#535359;" d="M270.283,26.189c0.358-0.207,0.939-0.207,1.298,0c0.357,0.207,0.357,0.542,0,0.748
								c-0.358,0.208-0.939,0.208-1.298,0C269.925,26.731,269.925,26.396,270.283,26.189z"/>
						</g>
						<g>
							<path style="fill:#121214;" d="M270.337,26.665c0.329,0.189,0.861,0.189,1.19,0c0.164-0.095,0.246-0.219,0.246-0.344v0.242
								c0,0.125-0.082,0.249-0.246,0.344c-0.329,0.189-0.861,0.189-1.19,0c-0.164-0.095-0.246-0.219-0.246-0.344v-0.242
								C270.091,26.446,270.173,26.57,270.337,26.665z"/>
							<path style="fill:#E6E7E8;" d="M270.337,25.978c0.329-0.189,0.861-0.189,1.19,0c0.328,0.19,0.328,0.498,0,0.688
								c-0.329,0.189-0.861,0.189-1.19,0C270.01,26.475,270.01,26.167,270.337,25.978z"/>
						</g>
						<g>
							<path style="fill:#303033;" d="M271.849,26.321v0.084c0,0.136-0.088,0.272-0.268,0.375c-0.358,0.208-0.939,0.208-1.298,0
								c-0.179-0.103-0.269-0.239-0.268-0.375v-0.084C270.016,26.456,271.849,26.456,271.849,26.321z"/>
							<path style="fill:#535359;" d="M270.283,25.946c0.358-0.208,0.939-0.208,1.298,0c0.357,0.207,0.357,0.542,0,0.75
								c-0.358,0.206-0.939,0.206-1.298,0C269.925,26.488,269.925,26.153,270.283,25.946z"/>
						</g>
						<g>
							<path style="fill:#121214;" d="M270.337,26.4c0.33,0.189,0.863,0.189,1.19,0c0.165-0.095,0.246-0.219,0.246-0.344v0.243
								c0,0.124-0.082,0.249-0.246,0.343c-0.327,0.19-0.861,0.191-1.19,0.001c-0.164-0.095-0.245-0.22-0.245-0.344v-0.243
								C270.092,26.181,270.173,26.305,270.337,26.4z"/>
							<path style="fill:#E6E7E8;" d="M270.337,25.713c0.33-0.19,0.863-0.19,1.19,0c0.328,0.188,0.328,0.497,0,0.687
								c-0.327,0.189-0.86,0.189-1.19,0C270.01,26.21,270.01,25.902,270.337,25.713z"/>
						</g>
						<g>
							<path style="fill:#303033;" d="M271.849,26.056l0.002,0.085c0,0.135-0.09,0.271-0.27,0.374c-0.358,0.207-0.939,0.207-1.297,0
								c-0.179-0.103-0.269-0.239-0.269-0.374v-0.085C270.016,26.191,271.849,26.191,271.849,26.056z"/>
							<path style="fill:#535359;" d="M270.283,25.681c0.358-0.206,0.939-0.206,1.298,0c0.358,0.206,0.358,0.542,0,0.749
								c-0.358,0.206-0.939,0.206-1.298,0C269.926,26.223,269.926,25.887,270.283,25.681z"/>
						</g>
						<g>
							<path style="fill:#121214;" d="M270.337,26.157c0.33,0.19,0.863,0.19,1.19,0c0.165-0.094,0.246-0.219,0.246-0.344v0.243
								c0,0.125-0.082,0.249-0.246,0.344c-0.327,0.189-0.86,0.189-1.19,0c-0.164-0.095-0.245-0.219-0.245-0.344v-0.243
								C270.092,25.938,270.173,26.063,270.337,26.157z"/>
							<path style="fill:#E6E7E8;" d="M270.337,25.47c0.33-0.19,0.863-0.19,1.19,0c0.328,0.189,0.328,0.496,0,0.686
								c-0.327,0.19-0.86,0.19-1.19,0C270.01,25.967,270.01,25.66,270.337,25.47z"/>
						</g>
						<g>
							<path style="fill:#303033;" d="M271.849,25.813l0.002,0.085c0,0.135-0.09,0.271-0.27,0.375c-0.358,0.206-0.939,0.206-1.297,0
								c-0.179-0.104-0.269-0.239-0.269-0.375v-0.085C270.016,25.949,271.849,25.949,271.849,25.813z"/>
							<path style="fill:#535359;" d="M270.283,25.438c0.358-0.207,0.939-0.207,1.298,0c0.358,0.208,0.358,0.542,0,0.749
								c-0.358,0.206-0.939,0.206-1.298,0C269.926,25.98,269.926,25.646,270.283,25.438z"/>
						</g>
						<g>
							<path style="fill:#121214;" d="M270.337,25.915c0.33,0.188,0.863,0.188,1.19,0c0.165-0.095,0.246-0.22,0.246-0.343v0.242
								c0,0.125-0.082,0.25-0.246,0.344c-0.327,0.19-0.86,0.19-1.19,0c-0.164-0.094-0.245-0.219-0.245-0.344v-0.242
								C270.092,25.695,270.173,25.819,270.337,25.915z"/>
							<path style="fill:#E6E7E8;" d="M270.337,25.227c0.33-0.189,0.863-0.189,1.19,0c0.328,0.19,0.328,0.497,0,0.688
								c-0.327,0.188-0.86,0.188-1.19,0C270.01,25.725,270.01,25.417,270.337,25.227z"/>
						</g>
						<g>
							<path style="fill:#303033;" d="M271.849,25.57l0.002,0.085c0,0.135-0.09,0.271-0.27,0.374c-0.358,0.207-0.939,0.207-1.297,0
								c-0.179-0.103-0.269-0.239-0.269-0.374V25.57C270.016,25.705,271.849,25.706,271.849,25.57z"/>
							<path style="fill:#535359;" d="M270.283,25.196c0.358-0.207,0.939-0.207,1.298,0c0.358,0.207,0.358,0.542,0,0.748
								c-0.358,0.207-0.939,0.207-1.298,0C269.926,25.738,269.926,25.403,270.283,25.196z"/>
						</g>
						<g>
							<path style="fill:#121214;" d="M270.337,25.671c0.329,0.191,0.863,0.19,1.19,0c0.165-0.095,0.246-0.219,0.246-0.343v0.243
								c0,0.123-0.082,0.248-0.246,0.343c-0.327,0.189-0.86,0.189-1.19,0c-0.164-0.095-0.245-0.22-0.245-0.343v-0.243
								C270.092,25.452,270.173,25.576,270.337,25.671z"/>
							<path style="fill:#E6E7E8;" d="M270.337,24.984c0.33-0.19,0.863-0.19,1.19,0c0.328,0.19,0.328,0.497,0,0.687
								c-0.327,0.19-0.86,0.19-1.19,0C270.01,25.482,270.01,25.174,270.337,24.984z"/>
						</g>
						<g>
							<path style="fill:#303033;" d="M271.849,25.327l0.002,0.086c0,0.135-0.09,0.27-0.27,0.374c-0.358,0.206-0.939,0.206-1.297,0
								c-0.179-0.104-0.269-0.24-0.269-0.375v-0.086C270.016,25.463,271.849,25.463,271.849,25.327z"/>
							<path style="fill:#535359;" d="M270.283,24.953c0.358-0.207,0.939-0.207,1.298,0c0.358,0.207,0.358,0.542,0,0.749
								c-0.358,0.207-0.939,0.208-1.298,0C269.926,25.495,269.926,25.159,270.283,24.953z"/>
						</g>
						<g>
							<path style="fill:#A7A9AC;" d="M270.604,24.652c0.172,0.101,0.453,0.101,0.626,0c0.088-0.05,0.131-0.115,0.131-0.181v0.843
								c0,0.065-0.043,0.131-0.131,0.181c-0.173,0.1-0.454,0.1-0.626,0c-0.087-0.05-0.131-0.116-0.131-0.181v-0.843
								C270.474,24.537,270.517,24.602,270.604,24.652z"/>
							<path style="fill:#E6E7E8;" d="M270.604,24.29c0.172-0.1,0.453-0.1,0.626,0c0.173,0.1,0.173,0.263,0,0.362
								c-0.173,0.101-0.454,0.101-0.626,0C270.432,24.552,270.431,24.39,270.604,24.29z"/>
						</g>
						<g>
							<path style="fill:#303033;" d="M271.023,23.396v1.068c0,0.016-0.012,0.031-0.033,0.043c-0.04,0.023-0.105,0.023-0.146,0
								c-0.021-0.012-0.031-0.027-0.031-0.043v-1.068C270.813,23.411,271.023,23.411,271.023,23.396z"/>
							<path style="fill:#535359;" d="M270.844,23.353c0.042-0.023,0.106-0.023,0.146,0c0.043,0.024,0.043,0.062,0,0.085
								c-0.039,0.023-0.105,0.023-0.146,0C270.803,23.415,270.804,23.377,270.844,23.353z"/>
						</g>
					</g>
					<path style="fill:#121214;" d="M270.919,23.489c-0.017,0-0.032-0.004-0.047-0.013l-7.838-4.524
						c-0.045-0.027-0.06-0.083-0.034-0.128c0.026-0.044,0.083-0.059,0.128-0.034l7.837,4.525c0.045,0.025,0.06,0.083,0.034,0.128
						C270.981,23.473,270.95,23.489,270.919,23.489z"/>
				</g>
				<g>
					<g>
						<g>
							<path style="fill:#E6E7E8;" d="M274.115,24.288c0.328-0.19,0.86-0.19,1.188,0c0.33,0.189,0.33,0.497,0,0.687
								c-0.328,0.19-0.86,0.19-1.188,0C273.787,24.785,273.787,24.478,274.115,24.288z"/>
						</g>
						<g>
							<path style="fill:#303033;" d="M275.627,24.631v0.085c0,0.135-0.09,0.271-0.268,0.374c-0.358,0.208-0.941,0.208-1.297,0
								c-0.179-0.103-0.271-0.238-0.27-0.374v-0.085C273.793,24.766,275.627,24.766,275.627,24.631z"/>
							<path style="fill:#535359;" d="M274.063,24.256c0.356-0.207,0.939-0.207,1.297,0c0.356,0.207,0.356,0.542,0,0.749
								c-0.358,0.206-0.941,0.206-1.297,0C273.703,24.798,273.703,24.463,274.063,24.256z"/>
						</g>
						<g>
							<path style="fill:#121214;" d="M274.115,24.732c0.328,0.189,0.86,0.189,1.188,0c0.165-0.095,0.249-0.219,0.249-0.344v0.244
								c0,0.124-0.084,0.248-0.249,0.343c-0.328,0.19-0.86,0.19-1.188,0c-0.165-0.095-0.246-0.219-0.246-0.343v-0.244
								C273.869,24.513,273.95,24.637,274.115,24.732z"/>
							<path style="fill:#E6E7E8;" d="M274.115,24.045c0.328-0.19,0.86-0.19,1.188,0c0.33,0.189,0.33,0.496,0,0.686
								c-0.328,0.189-0.86,0.189-1.188,0C273.787,24.542,273.787,24.235,274.115,24.045z"/>
						</g>
						<g>
							<path style="fill:#303033;" d="M275.627,24.387v0.086c0,0.136-0.09,0.271-0.268,0.375c-0.358,0.206-0.941,0.206-1.297,0
								c-0.179-0.104-0.271-0.239-0.27-0.375v-0.086C273.793,24.523,275.627,24.523,275.627,24.387z"/>
							<path style="fill:#535359;" d="M274.063,24.014c0.356-0.208,0.939-0.208,1.297,0c0.356,0.207,0.356,0.541,0,0.748
								c-0.358,0.208-0.941,0.208-1.297,0C273.703,24.555,273.703,24.221,274.063,24.014z"/>
						</g>
						<g>
							<path style="fill:#121214;" d="M274.115,24.49c0.328,0.189,0.86,0.189,1.188,0c0.165-0.095,0.249-0.22,0.249-0.344v0.243
								c0,0.124-0.084,0.248-0.249,0.343c-0.328,0.19-0.86,0.19-1.188,0c-0.165-0.094-0.246-0.219-0.246-0.343v-0.243
								C273.869,24.27,273.95,24.395,274.115,24.49z"/>
							<path style="fill:#E6E7E8;" d="M274.115,23.803c0.328-0.189,0.86-0.189,1.188,0c0.33,0.19,0.33,0.497,0,0.687
								c-0.328,0.189-0.86,0.189-1.188,0C273.787,24.299,273.787,23.992,274.115,23.803z"/>
						</g>
						<g>
							<path style="fill:#303033;" d="M275.627,24.145v0.085c0,0.136-0.09,0.272-0.268,0.374c-0.358,0.208-0.941,0.208-1.297,0
								c-0.179-0.102-0.271-0.238-0.27-0.374v-0.085C273.793,24.281,275.627,24.281,275.627,24.145z"/>
							<path style="fill:#535359;" d="M274.063,23.771c0.356-0.207,0.939-0.207,1.297,0c0.356,0.207,0.356,0.541,0,0.749
								c-0.358,0.206-0.941,0.207-1.297,0C273.703,24.312,273.703,23.978,274.063,23.771z"/>
						</g>
						<g>
							<path style="fill:#121214;" d="M274.115,24.224c0.328,0.19,0.86,0.19,1.188,0c0.165-0.095,0.249-0.22,0.249-0.344v0.243
								c0,0.124-0.084,0.249-0.249,0.343c-0.328,0.19-0.86,0.19-1.188,0.001c-0.163-0.095-0.246-0.22-0.246-0.344V23.88
								C273.869,24.004,273.952,24.129,274.115,24.224z"/>
							<path style="fill:#E6E7E8;" d="M274.115,23.537c0.328-0.189,0.86-0.189,1.188,0c0.33,0.19,0.33,0.497,0,0.687
								c-0.328,0.19-0.86,0.19-1.188,0C273.787,24.035,273.787,23.727,274.115,23.537z"/>
						</g>
						<g>
							<path style="fill:#303033;" d="M275.627,23.88l0.001,0.085c0,0.136-0.091,0.271-0.268,0.375
								c-0.358,0.207-0.941,0.207-1.297,0c-0.179-0.104-0.27-0.239-0.27-0.375V23.88C273.793,24.015,275.627,24.015,275.627,23.88z"
								/>
							<path style="fill:#535359;" d="M274.063,23.506c0.356-0.207,0.939-0.207,1.297,0c0.356,0.206,0.356,0.542,0,0.749
								c-0.358,0.205-0.941,0.206-1.297,0C273.704,24.048,273.704,23.712,274.063,23.506z"/>
						</g>
						<g>
							<path style="fill:#121214;" d="M274.115,23.981c0.328,0.19,0.86,0.189,1.188,0c0.165-0.094,0.249-0.219,0.249-0.343v0.243
								c0,0.124-0.084,0.249-0.249,0.343c-0.328,0.19-0.86,0.19-1.188,0c-0.163-0.094-0.246-0.22-0.246-0.343v-0.243
								C273.869,23.762,273.952,23.887,274.115,23.981z"/>
							<path style="fill:#E6E7E8;" d="M274.115,23.295c0.328-0.19,0.86-0.19,1.188,0c0.33,0.189,0.33,0.496,0,0.686
								c-0.328,0.189-0.86,0.19-1.188,0C273.787,23.792,273.787,23.484,274.115,23.295z"/>
						</g>
						<g>
							<path style="fill:#303033;" d="M275.627,23.637l0.001,0.086c0,0.135-0.091,0.271-0.268,0.374
								c-0.358,0.207-0.941,0.207-1.297,0c-0.179-0.103-0.27-0.239-0.27-0.374v-0.086C273.793,23.772,275.627,23.772,275.627,23.637
								z"/>
							<path style="fill:#535359;" d="M274.063,23.262c0.356-0.206,0.939-0.206,1.297,0c0.356,0.208,0.356,0.542,0,0.75
								c-0.358,0.207-0.941,0.207-1.297,0C273.704,23.804,273.704,23.47,274.063,23.262z"/>
						</g>
						<g>
							<path style="fill:#121214;" d="M274.115,23.739c0.328,0.189,0.86,0.189,1.188,0c0.165-0.095,0.249-0.22,0.249-0.343v0.242
								c0,0.125-0.084,0.249-0.249,0.343c-0.328,0.19-0.86,0.19-1.188,0c-0.163-0.094-0.246-0.219-0.246-0.343v-0.242
								C273.869,23.519,273.952,23.644,274.115,23.739z"/>
							<path style="fill:#E6E7E8;" d="M274.115,23.052c0.328-0.189,0.86-0.189,1.188,0c0.33,0.189,0.33,0.496,0,0.687
								c-0.328,0.189-0.86,0.189-1.188,0C273.787,23.548,273.787,23.241,274.115,23.052z"/>
						</g>
						<g>
							<path style="fill:#303033;" d="M275.627,23.395l0.001,0.084c0,0.136-0.091,0.272-0.268,0.375
								c-0.358,0.207-0.941,0.207-1.297,0c-0.179-0.103-0.27-0.239-0.27-0.375v-0.084C273.793,23.53,275.627,23.53,275.627,23.395z"
								/>
							<path style="fill:#535359;" d="M274.063,23.021c0.356-0.208,0.939-0.208,1.297,0c0.356,0.207,0.356,0.542,0,0.748
								c-0.358,0.207-0.941,0.207-1.297,0C273.704,23.562,273.704,23.227,274.063,23.021z"/>
						</g>
						<g>
							<path style="fill:#121214;" d="M274.115,23.496c0.328,0.19,0.86,0.19,1.188,0c0.165-0.096,0.249-0.219,0.249-0.343v0.243
								c0,0.123-0.084,0.248-0.249,0.343c-0.328,0.19-0.86,0.19-1.188,0c-0.163-0.095-0.246-0.22-0.246-0.343v-0.243
								C273.869,23.276,273.952,23.4,274.115,23.496z"/>
							<path style="fill:#E6E7E8;" d="M274.115,22.809c0.328-0.19,0.86-0.19,1.188,0c0.33,0.19,0.33,0.497,0,0.687
								c-0.328,0.19-0.86,0.19-1.188,0C273.787,23.307,273.787,22.999,274.115,22.809z"/>
						</g>
						<g>
							<path style="fill:#303033;" d="M275.627,23.152l0.001,0.085c0,0.135-0.091,0.27-0.268,0.374
								c-0.358,0.207-0.941,0.207-1.297,0c-0.179-0.104-0.27-0.24-0.27-0.374v-0.085C273.793,23.288,275.627,23.288,275.627,23.152z
								"/>
							<path style="fill:#535359;" d="M274.063,22.778c0.356-0.208,0.939-0.208,1.297,0c0.356,0.206,0.356,0.542,0,0.748
								c-0.358,0.207-0.941,0.207-1.297,0C273.704,23.319,273.704,22.984,274.063,22.778z"/>
						</g>
						<g>
							<path style="fill:#A7A9AC;" d="M274.382,22.477c0.172,0.1,0.453,0.1,0.627,0c0.087-0.05,0.13-0.116,0.13-0.181v0.843
								c0,0.066-0.043,0.132-0.13,0.181c-0.174,0.101-0.455,0.101-0.627,0c-0.087-0.049-0.131-0.115-0.13-0.181v-0.843
								C274.252,22.361,274.295,22.427,274.382,22.477z"/>
							<path style="fill:#E6E7E8;" d="M274.382,22.115c0.172-0.1,0.453-0.1,0.627,0c0.174,0.099,0.174,0.262,0,0.362
								c-0.174,0.1-0.455,0.1-0.627,0C274.209,22.376,274.209,22.214,274.382,22.115z"/>
						</g>
						<g>
							<path style="fill:#303033;" d="M274.802,21.22v1.07c0,0.015-0.011,0.031-0.032,0.043c-0.042,0.023-0.106,0.023-0.148,0
								c-0.021-0.012-0.03-0.028-0.03-0.043v-1.07C274.591,21.236,274.802,21.236,274.802,21.22z"/>
							<path style="fill:#535359;" d="M274.621,21.178c0.042-0.024,0.106-0.024,0.148,0c0.04,0.024,0.04,0.062,0,0.086
								c-0.042,0.023-0.106,0.023-0.148,0C274.581,21.239,274.581,21.201,274.621,21.178z"/>
						</g>
					</g>
					<path style="fill:#121214;" d="M274.695,21.313c-0.017,0-0.031-0.004-0.046-0.013l-7.837-4.524
						c-0.045-0.026-0.06-0.083-0.035-0.128c0.026-0.045,0.083-0.059,0.128-0.034l7.836,4.525c0.046,0.025,0.061,0.083,0.035,0.127
						C274.759,21.297,274.727,21.313,274.695,21.313z"/>
				</g>
			</g>
		</g>
	</g>
</g>
</svg>
