<?xml version="1.0" encoding="utf-8"?>
<!-- Generator: Adobe Illustrator 27.5.0, SVG Export Plug-In . SVG Version: 6.00 Build 0)  -->
<svg version="1.1" id="Layer_1" xmlns="http://www.w3.org/2000/svg" xmlns:xlink="http://www.w3.org/1999/xlink" x="0px" y="0px"
    viewBox="240 350 90 90" style="enable-background:new 240 350 90 90;" xml:space="preserve">
<g>
	<g>
		<g>
			<polygon style="fill:#939598;" points="300.543,417.964 271.93,434.485 268.906,425.746 273.59,420.439 302.204,403.917 			"/>
			<polygon style="opacity:0.1;" points="293.227,420.317 274.348,431.221 275.442,421.952 294.325,411.05 			"/>
			<polygon style="fill:#A7A9AC;" points="302.204,378.469 273.59,394.989 270.566,386.247 271.93,379.024 300.543,362.505 			"/>
			<polygon style="fill:#BCBEC0;" points="289.471,384.524 284.773,387.237 284.624,385.779 288.134,383.752 286.924,372.107
				288.107,371.423 			"/>
			<polygon style="fill:#939598;" points="288.134,383.752 284.624,385.779 283.412,374.136 286.924,372.107 			"/>
			<polygon style="fill:#A7A9AC;" points="307.074,406.392 278.46,422.912 272.929,408.298 278.46,398.138 307.074,381.617 			"/>
			<polygon style="fill:#A7A9AC;" points="258.818,409.292 261.737,407.604 262.387,411.438 259.583,412.348 			"/>
			<polygon style="fill:#BCBEC0;" points="278.46,398.138 273.59,394.989 271.93,379.024 258.818,371.454 258.818,389.078
				260.478,388.873 260.478,411.416 258.818,409.292 258.818,426.914 271.93,434.485 273.59,420.439 278.459,422.912 			"/>
			<polygon style="fill:#D1D3D4;" points="307.074,381.617 278.46,398.138 273.59,394.989 302.204,378.469 			"/>
			<polygon style="fill:#D1D3D4;" points="300.543,362.505 271.93,379.024 258.818,371.454 287.432,354.935 			"/>
		</g>
		<g>
			<polygon style="fill:#939598;" points="306.1,387.371 306.1,401.602 279.761,416.81 279.761,415.223 304.725,400.81
				304.725,388.165 			"/>
			<polygon style="fill:#D1D3D4;" points="304.725,388.165 304.725,400.81 279.761,415.223 279.761,402.579 			"/>
			<polygon style="fill:#939598;" points="298.621,395.028 286.438,402.063 286.438,400.351 298.621,393.316 			"/>
			<polygon style="fill:#939598;" points="288.192,407.609 281.075,411.721 281.075,411.015 288.192,406.905 			"/>
			<polygon style="fill:#535359;" points="302.08,393.426 300.292,394.459 300.292,394.773 302.08,393.742 			"/>
			<polygon style="fill:#535359;" points="299.29,397.539 297.502,398.572 297.502,398.889 299.29,397.856 			"/>
			<polygon style="fill:#939598;" points="288.192,409.079 281.075,413.19 281.075,412.484 288.192,408.375 			"/>
			<polygon style="fill:#939598;" points="303.392,400.305 299.827,402.362 299.827,400.19 303.392,398.13 			"/>
			<g>
				<polygon style="fill:#303033;" points="294.902,401.707 280.636,409.943 280.636,406.996 294.902,398.759 				"/>
				<polygon style="fill:#E31B25;" points="297.059,400.463 294.902,401.707 294.902,398.759 297.059,397.514 				"/>
				<g>
					<polygon points="282.301,406.377 282.301,408.671 280.844,409.513 280.844,409.31 282.124,408.57 282.124,406.479 					"/>
					<polygon style="fill:#121214;" points="282.124,406.479 282.124,408.57 280.844,409.31 280.844,407.217 					"/>
					<g>
						<path style="fill:#FFFFFF;" d="M281.134,408.129c0-0.477,0.148-0.818,0.396-0.961c0.246-0.143,0.394,0.029,0.394,0.506
							c0,0.477-0.147,0.826-0.394,0.969C281.282,408.785,281.134,408.605,281.134,408.129z M281.769,407.763
							c0-0.417-0.096-0.53-0.239-0.448c-0.145,0.084-0.24,0.308-0.24,0.725c0,0.416,0.096,0.539,0.24,0.456
							C281.673,408.413,281.769,408.179,281.769,407.763z"/>
					</g>
				</g>
				<g>
					<polygon points="284.756,404.959 284.756,407.254 283.302,408.093 283.302,407.892 284.582,407.153 284.582,405.06 					"/>
					<polygon style="fill:#121214;" points="284.582,405.06 284.582,407.153 283.302,407.892 283.302,405.799 					"/>
					<g>
						<path style="fill:#FFFFFF;" d="M284.183,406.345c0-0.418-0.097-0.531-0.24-0.449c-0.145,0.085-0.241,0.309-0.241,0.726
							s0.097,0.539,0.241,0.455C284.086,406.994,284.183,406.762,284.183,406.345z M283.547,406.711
							c0-0.478,0.148-0.819,0.395-0.961c0.245-0.143,0.394,0.029,0.394,0.506c0,0.476-0.148,0.825-0.394,0.969
							C283.695,407.366,283.547,407.186,283.547,406.711z"/>
					</g>
				</g>
				<g>
					<polygon points="287.215,403.541 287.215,405.835 285.759,406.674 285.759,406.473 287.039,405.733 287.039,403.64 					"/>
					<polygon style="fill:#121214;" points="287.039,403.64 287.039,405.733 285.759,406.473 285.759,404.381 					"/>
					<g>
						<path style="fill:#FFFFFF;" d="M286.64,404.925c0-0.415-0.099-0.529-0.239-0.446c-0.145,0.082-0.243,0.309-0.243,0.723
							c0,0.418,0.099,0.54,0.243,0.457C286.541,405.575,286.64,405.342,286.64,404.925z M286.005,405.291
							c0-0.476,0.148-0.816,0.396-0.96c0.244-0.142,0.393,0.028,0.393,0.505c0,0.477-0.149,0.828-0.393,0.968
							C286.153,405.947,286.005,405.768,286.005,405.291z"/>
					</g>
				</g>
				<g>
					<polygon points="289.671,402.122 289.671,404.415 288.216,405.257 288.216,405.054 289.497,404.315 289.497,402.223 					"/>
					<polygon style="fill:#121214;" points="289.497,402.223 289.497,404.315 288.216,405.054 288.216,402.961 					"/>
					<g>
						<path style="fill:#FFFFFF;" d="M289.095,403.506c0-0.416-0.095-0.528-0.237-0.447c-0.143,0.084-0.241,0.308-0.241,0.725
							s0.098,0.539,0.241,0.455C289,404.156,289.095,403.924,289.095,403.506z M288.463,403.874c0-0.477,0.147-0.82,0.395-0.962
							c0.244-0.142,0.393,0.029,0.393,0.504c0,0.478-0.148,0.829-0.393,0.969C288.61,404.528,288.463,404.35,288.463,403.874z"/>
					</g>
				</g>
				<g>
					<polygon points="292.129,400.701 292.129,402.998 290.674,403.838 290.674,403.635 291.953,402.896 291.953,400.804 					"/>
					<polygon style="fill:#121214;" points="291.953,400.804 291.953,402.896 290.674,403.635 290.674,401.543 					"/>
					<g>
						<path style="fill:#FFFFFF;" d="M291.554,402.089c0-0.417-0.096-0.531-0.239-0.449c-0.143,0.084-0.241,0.309-0.241,0.725
							c0,0.417,0.099,0.539,0.241,0.456C291.458,402.737,291.554,402.504,291.554,402.089z M290.92,402.454
							c0-0.477,0.147-0.818,0.395-0.961c0.246-0.143,0.394,0.03,0.394,0.506c0,0.476-0.148,0.826-0.394,0.968
							C291.067,403.109,290.92,402.931,290.92,402.454z"/>
					</g>
				</g>
				<g>
					<polygon points="294.588,399.284 294.588,401.578 293.131,402.419 293.131,402.217 294.411,401.477 294.411,399.386 					"/>
					<polygon style="fill:#121214;" points="294.411,399.386 294.411,401.477 293.131,402.217 293.131,400.125 					"/>
					<g>
						<path style="fill:#FFFFFF;" d="M293.422,401.035c0-0.477,0.149-0.82,0.396-0.963c0.245-0.141,0.393,0.03,0.393,0.507
							s-0.147,0.827-0.393,0.968C293.571,401.69,293.422,401.512,293.422,401.035z M294.058,400.668c0-0.417-0.097-0.53-0.239-0.447
							c-0.145,0.083-0.241,0.308-0.241,0.725c0,0.416,0.097,0.539,0.241,0.455C293.961,401.318,294.058,401.084,294.058,400.668z"/>
					</g>
				</g>
				<g>
					<polygon style="fill:#9C251F;" points="296.685,398.071 296.685,400.367 295.229,401.208 295.229,401.005 296.511,400.266
						296.511,398.174 					"/>
					<polygon style="fill:#FF3F4A;" points="296.511,398.174 296.511,400.266 295.229,401.005 295.229,398.912 					"/>
					<g>
						<path style="fill:#FFFFFF;" d="M295.52,399.823c0-0.477,0.149-0.819,0.396-0.962c0.246-0.142,0.394,0.029,0.394,0.506
							c0,0.477-0.148,0.827-0.394,0.969C295.67,400.478,295.52,400.3,295.52,399.823z M296.155,399.457
							c0-0.418-0.096-0.531-0.239-0.448c-0.145,0.083-0.24,0.308-0.24,0.726c0,0.416,0.096,0.539,0.24,0.455
							C296.06,400.107,296.155,399.873,296.155,399.457z"/>
					</g>
				</g>
			</g>
			<g>
				<polygon style="fill:#FFFFFF;" points="284.903,403.39 280.636,405.854 280.636,403.167 284.902,400.701 				"/>
				<polygon style="fill:#3576AB;" points="284.545,403.155 283.34,403.851 283.341,402.139 284.545,401.445 				"/>
				<polygon style="fill:#E31B25;" points="283.006,404.043 281.02,405.189 281.02,403.478 283.007,402.332 				"/>
			</g>
			<g>
				<path style="fill:#939598;" d="M301.792,392.342c0,0.477-0.338,1.059-0.75,1.297c-0.319,0.185-0.592,0.112-0.701-0.149
					c0.085-0.012,0.175-0.044,0.271-0.098c0.414-0.239,0.751-0.82,0.751-1.298c0-0.109-0.019-0.204-0.053-0.282
					C301.591,391.773,301.792,391.974,301.792,392.342z"/>
				<path style="fill:#24D2C1;" d="M301.362,392.094c0,0.477-0.337,1.059-0.751,1.298c-0.096,0.054-0.186,0.086-0.271,0.098
					c-0.032-0.078-0.049-0.173-0.049-0.282c0-0.479,0.336-1.059,0.75-1.299c0.094-0.056,0.185-0.086,0.268-0.097
					C301.344,391.89,301.362,391.984,301.362,392.094z"/>
			</g>
		</g>
	</g>
</g>
</svg>
