<?xml version="1.0" encoding="utf-8"?>
<!-- Generator: Adobe Illustrator 27.5.0, SVG Export Plug-In . SVG Version: 6.00 Build 0)  -->
<svg version="1.1" id="Layer_1" xmlns="http://www.w3.org/2000/svg" xmlns:xlink="http://www.w3.org/1999/xlink" x="0px" y="0px"
	viewBox="330 350 100 100" style="enable-background:new 330 350 100 100;" xml:space="preserve">
<g>
	<g>
		<g>
			<path style="fill:#E6E7E8;" d="M375.491,410.264l16.584-28.172l-29.393-16.967v0.001c-2.104-1.32-5.064-1.188-8.345,0.706
				c-6.383,3.685-11.56,12.648-11.56,20.021c0,3.484,1.157,5.989,3.052,7.271h-0.001l0.007,0.003
				c0.213,0.145,0.438,0.275,0.669,0.388L375.491,410.264z"/>
			<path style="fill:#BCBEC0;" d="M395.356,389.512c0,7.372-5.176,16.336-11.559,20.023c-6.384,3.685-11.56,0.698-11.56-6.675
				c0-7.37,5.176-16.334,11.56-20.02C390.181,379.152,395.356,382.142,395.356,389.512z"/>
		</g>
		<path style="fill:#535359;" d="M392.717,416.121l12.879-22.132l-15.307-8.864l-0.001,0.003c-1.645-1.006-3.945-0.892-6.491,0.577
			c-5,2.887-9.056,9.908-9.055,15.682c0,2.832,0.978,4.834,2.559,5.803l-0.001,0.002l0.065,0.038c0.02,0.011,0.04,0.023,0.06,0.034
			L392.717,416.121z"/>
		<path style="fill:#303033;" d="M408.144,399.789c0,5.773-4.053,12.795-9.053,15.682c-5,2.888-9.055,0.547-9.055-5.228
			c-0.001-5.773,4.055-12.795,9.055-15.682C404.091,391.674,408.144,394.015,408.144,399.789z"/>
		<path style="fill:#121214;" d="M407.499,400.162c0,5.362-3.765,11.883-8.407,14.564c-4.646,2.682-8.41,0.507-8.41-4.855
			s3.765-11.884,8.41-14.565C403.734,392.625,407.499,394.798,407.499,400.162z"/>
		<g>
			<g>
				<path style="fill:#603913;" d="M410.473,415.717l5.651-9.449l-10.277-5.941l0,0c-0.705-0.404-1.678-0.345-2.751,0.275
					c-2.149,1.241-3.896,4.262-3.896,6.746c0,1.175,0.393,2.018,1.03,2.449v0.001l0.012,0.008
					C400.308,409.849,410.473,415.717,410.473,415.717z"/>
				<path style="fill:#3C2415;" d="M417.134,408.706c0,2.483-1.744,5.503-3.896,6.746c-2.15,1.242-3.895,0.234-3.895-2.249
					s1.744-5.504,3.895-6.746C415.39,405.216,417.134,406.223,417.134,408.706z"/>
			</g>
			<g>
				<path style="fill:#B56100;" d="M415.022,408.11l-0.002,0.002c-0.435-0.318-1.071-0.314-1.782,0.097
					c-1.313,0.758-2.377,2.601-2.377,4.119c0,0.767,0.273,1.304,0.714,1.547l-0.001,0.001l6.94,4.008l3.402-5.802L415.022,408.11z"
					/>
				<path style="fill:#944F00;" d="M422.581,413.603c0,1.516-1.064,3.36-2.378,4.118c-1.314,0.761-2.378,0.145-2.378-1.372
					c0-1.518,1.064-3.361,2.378-4.118C421.518,411.471,422.581,412.086,422.581,413.603z"/>
			</g>
		</g>
		<g>
			<g>
				<path style="fill:#3576AB;" d="M402.683,420.628l5.651-9.449l-10.276-5.941l-5.256-3.034
					c-4.086,7.686-1.224,11.945-0.583,12.378L402.683,420.628z"/>
				<path style="fill:#174666;" d="M409.344,413.616c0,2.485-1.744,5.505-3.895,6.747c-2.152,1.242-3.896,0.236-3.896-2.249
					c0-2.483,1.743-5.504,3.896-6.746C407.6,410.127,409.344,411.134,409.344,413.616z"/>
			</g>
			<g>
				<path style="fill:#B56100;" d="M407.232,413.022v0.002c-0.436-0.319-1.071-0.314-1.782,0.097
					c-1.315,0.759-2.379,2.603-2.379,4.118c0,0.77,0.273,1.304,0.714,1.549v0.001l6.94,4.008l3.401-5.802L407.232,413.022z"/>
				<path style="fill:#944F00;" d="M414.791,418.514c0,1.517-1.064,3.361-2.378,4.119c-1.313,0.759-2.378,0.143-2.378-1.372
					c0-1.518,1.065-3.361,2.379-4.12C413.727,416.384,414.791,416.996,414.791,418.514z"/>
			</g>
		</g>
		<g>
			<g>
				<path style="fill:#FF9D26;" d="M406.31,410.513l5.652-9.449l-11.261-6.51c0,0-4.659,1.287-8.102,8.033l3.469,2.007l0.012,0.007
					C396.146,404.643,406.31,410.513,406.31,410.513z"/>
				<path style="fill:#FF8400;" d="M412.973,403.5c0,2.484-1.744,5.505-3.896,6.746c-2.151,1.241-3.895,0.235-3.896-2.248
					c0-2.484,1.744-5.504,3.896-6.746C411.228,400.009,412.973,401.016,412.973,403.5z"/>
			</g>
			<g>
				<path style="fill:#B56100;" d="M410.862,402.905l-0.001,0.002c-0.436-0.32-1.073-0.314-1.784,0.097
					c-1.313,0.758-2.378,2.602-2.378,4.117c0,0.768,0.273,1.305,0.715,1.549l0,0l6.938,4.008l3.402-5.801L410.862,402.905z"/>
				<path style="fill:#944F00;" d="M418.42,408.397c0,1.518-1.065,3.36-2.377,4.119c-1.315,0.758-2.379,0.144-2.379-1.374
					c0-1.515,1.064-3.359,2.379-4.117C417.354,406.266,418.42,406.882,418.42,408.397z"/>
			</g>
		</g>
	</g>
</g>
</svg>
