<?xml version="1.0" encoding="utf-8"?>
<svg version="1.1" id="Layer_1" xmlns="http://www.w3.org/2000/svg" xmlns:xlink="http://www.w3.org/1999/xlink" x="0px" y="0px"
	viewBox="20 130 80 80" style="enable-background:new 20 130 80 80;" xml:space="preserve">
<g>
	<g>
		<path style="opacity:0.3;" d="M66.258,204.792c-0.524,0.302-1.383,0.302-1.907,0l-35.105-20.267c-0.524-0.303-0.524-0.798,0-1.102
			l26.242-15.15c0.524-0.303,1.382-0.303,1.907,0l35.104,20.268c0.525,0.303,0.525,0.798,0,1.101L66.258,204.792z"/>
		<g>
			<g>
				<g>
					<path style="fill:#FF9D26;" d="M56.178,166.159l-0.298-25.195c0-0.339-0.067-0.671-0.182-0.966l0.217,0.061l0.231-0.301
						l-1.101-0.636c-0.032-0.019-0.062-0.036-0.094-0.052l-0.02-0.012v0.002c-0.016-0.007-0.032-0.016-0.048-0.023l-3.249-1.347
						c-0.541-0.225-1.49-0.083-2.205,0.33l-14.874,8.588c-0.715,0.412-1.662,1.365-2.204,2.215l-3.25,5.097
						c-0.567,0.891-0.995,2.213-0.995,3.077v26.027c0,0.206,0.072,0.351,0.187,0.421l0,0l0.002,0.003
						c0.002,0.001,1.208,0.695,1.208,0.695l0.429-1.066l0.059-0.862l-0.573,0.077c0-0.009,0.002-0.016,0.002-0.026v-24.473
						l3.073-5.502l3.11-4.773l13.825-7.981c0.402-0.231,1.044-0.328,1.35-0.202l3.248,1.346c0.277,0.114,0.538,0.62,0.538,1.042
						v26.027c0,0.204,0.069,0.347,0.182,0.419l0,0l1.208,0.697l0.543-1.983L56.178,166.159z"/>
					<path style="fill:#BA6000;" d="M56.406,168.812c-0.363,0.21-0.656,0.04-0.656-0.378l-0.001-26.028
						c0-0.42-0.26-0.926-0.537-1.041l-3.249-1.347c-0.305-0.126-0.948-0.03-1.348,0.202l-14.875,8.588
						c-0.401,0.231-1.043,0.878-1.348,1.355l-3.249,5.098c-0.276,0.433-0.539,1.241-0.539,1.661v26.028
						c0,0.418-0.294,0.928-0.656,1.136c-0.363,0.211-0.656,0.041-0.656-0.378V157.68c0-0.863,0.427-2.186,0.996-3.076l3.248-5.098
						c0.543-0.85,1.491-1.803,2.205-2.215l14.875-8.588c0.713-0.413,1.661-0.555,2.204-0.33l3.248,1.346
						c0.566,0.236,0.995,1.064,0.995,1.928v26.027C57.062,168.094,56.769,168.602,56.406,168.812z"/>
				</g>
				<g>
					<polygon style="fill:#FF9D26;" points="54.567,144.813 30.604,158.645 30.604,162.223 54.567,148.389 55.751,145.496 					"/>
					<polygon style="fill:#BA6000;" points="30.604,160.012 30.604,163.589 55.751,149.072 55.751,145.496 					"/>
				</g>
			</g>
			<g>
				<path style="fill:#FF9D26;" d="M90.387,188.234c0-0.417,0.293-0.922,0.653-1.13c0.179-0.104,0.343-0.113,0.461-0.044
					l-34.56-19.954c-0.118-0.068-0.281-0.059-0.461,0.046c-0.359,0.207-0.652,0.713-0.652,1.129c0,0.206,0.073,0.354,0.191,0.422
					l34.561,19.953C90.461,188.588,90.387,188.441,90.387,188.234z"/>
				<path style="fill:#BA6000;" d="M91.04,188.609c0.36-0.208,0.652-0.713,0.652-1.128c0-0.417-0.292-0.586-0.652-0.377
					c-0.359,0.208-0.653,0.712-0.653,1.13C90.387,188.648,90.68,188.816,91.04,188.609z"/>
			</g>
		</g>
		<g>
			<path style="fill:#535359;" d="M53.298,167.528l-7.488-4.324c-1.126-0.65-2.687-0.558-4.408,0.439
				c-3.444,1.986-6.235,6.821-6.233,10.797c-0.001,1.987,0.698,3.387,1.826,4.034l7.49,4.324
				C43.355,182.146,52.17,166.876,53.298,167.528z"/>
			<path style="fill:#303033;" d="M48.889,182.365c3.442-1.99,6.235-6.826,6.235-10.799c0-3.978-2.79-5.588-6.236-3.601
				c-3.44,1.987-6.234,6.823-6.235,10.799C42.653,182.739,45.446,184.35,48.889,182.365z"/>
		</g>
		<g>
			<polygon style="fill:#BA6000;" points="41.23,190.017 38.131,188.227 38.131,186.853 67.11,173.699 67.11,175.076 			"/>
			<polygon style="fill:#FF8400;" points="41.23,188.641 38.131,186.853 64.012,171.91 67.11,173.699 			"/>
		</g>
		<g>
			<polygon style="fill:#BA6000;" points="57.29,199.29 54.191,197.501 54.191,196.125 83.169,182.97 83.169,184.347 			"/>
			<polygon style="fill:#FF8400;" points="57.29,197.913 54.191,196.125 80.073,181.183 83.169,182.97 			"/>
		</g>
		<g>
			<g>
				<path style="fill:#303033;" d="M81.02,191.974l5.69-17.439l-15.77-9.102l0,0c-0.487-0.226-1.132-0.164-1.834,0.242l-1.813,1.047
					c-1.509,0.871-2.745,3.012-2.745,4.754v9.681c0,0.863,0.302,1.473,0.79,1.764l0,0.001l0.007,0.004
					c0.007,0.004,0.013,0.007,0.018,0.01L81.02,191.974z"/>
				<path style="fill:#121214;" d="M87.467,185.956c0,1.745-1.235,3.886-2.745,4.756l-1.813,1.046
					c-1.51,0.872-2.745,0.159-2.745-1.585v-9.681c0-1.743,1.235-3.882,2.745-4.754l1.813-1.046c1.51-0.873,2.745-0.159,2.745,1.584
					V185.956z"/>
			</g>
			<g>
				<g>
					<path style="fill:#A7A9AC;" d="M83.054,180.186c0-0.883,0.621-1.957,1.384-2.399c0.383-0.221,0.729-0.241,0.98-0.097
						l-0.443-0.256c-0.249-0.145-0.596-0.123-0.979,0.098c-0.765,0.442-1.386,1.516-1.385,2.399
						c-0.001,0.441,0.155,0.752,0.405,0.896l0.443,0.255C83.21,180.938,83.054,180.628,83.054,180.186z"/>
					<path style="fill:#E6E7E8;" d="M84.438,180.986c0.765-0.442,1.386-1.517,1.386-2.399c0-0.884-0.62-1.242-1.386-0.8
						c-0.764,0.441-1.384,1.516-1.384,2.399C83.054,181.07,83.675,181.428,84.438,180.986z"/>
				</g>
				<g>
					<path style="fill:#A7A9AC;" d="M83.724,180.367c0-0.769,0.54-1.704,1.205-2.089c0.335-0.192,0.636-0.21,0.855-0.084
						l-0.427-0.247c-0.218-0.126-0.52-0.107-0.854,0.086c-0.667,0.384-1.206,1.32-1.205,2.088c0,0.384,0.134,0.655,0.354,0.781
						l0.427,0.247C83.858,181.02,83.724,180.751,83.724,180.367z"/>
					<path style="fill:#E6E7E8;" d="M84.928,181.064c0.667-0.384,1.209-1.32,1.207-2.089c0-0.77-0.54-1.081-1.207-0.697
						c-0.664,0.386-1.205,1.321-1.205,2.089C83.724,181.136,84.264,181.448,84.928,181.064z"/>
				</g>
			</g>
		</g>
		<g>
			<polygon style="fill:#535359;" points="46.488,185.247 44.021,183.823 44.021,183.109 51.543,181.613 51.543,182.329 			"/>
			<polygon style="fill:#A7A9AC;" points="46.488,184.531 44.021,183.109 49.076,180.189 51.543,181.613 			"/>
		</g>
		<g>
			<polygon style="fill:#535359;" points="62.521,194.504 60.055,193.081 60.055,192.366 67.577,190.872 67.577,191.587 			"/>
			<polygon style="fill:#A7A9AC;" points="62.521,193.788 60.055,192.366 65.11,189.447 67.577,190.872 			"/>
		</g>
		<g>
			<g>
				<path style="fill:#535359;" d="M74.725,180.725L53.29,168.349c-1.026-0.593-2.448-0.508-4.017,0.399
					c-3.136,1.811-5.681,6.216-5.68,9.838c-0.001,1.811,0.637,3.086,1.664,3.676l21.435,12.374
					C65.663,194.044,73.695,180.13,74.725,180.725z"/>
				<path style="fill:#535359;" d="M70.706,194.242c3.136-1.814,5.681-6.219,5.681-9.84c0-3.624-2.543-5.092-5.682-3.281
					c-3.135,1.812-5.679,6.217-5.681,9.84C65.024,194.583,67.568,196.051,70.706,194.242z"/>
			</g>
			<g>
				<path style="fill:#E31B25;" d="M66.835,192.006c0.002-3.622,2.546-8.027,5.68-9.839c1.571-0.907,2.992-0.992,4.021-0.397
					l-1.814-1.048c-1.027-0.592-2.449-0.509-4.018,0.399c-3.137,1.811-5.681,6.217-5.68,9.838c-0.001,1.811,0.637,3.085,1.664,3.676
					l1.814,1.048C67.475,195.088,66.838,193.816,66.835,192.006z"/>
				<path style="fill:#9C251F;" d="M72.517,195.288c3.137-1.813,5.681-6.219,5.681-9.84c0-3.624-2.542-5.091-5.682-3.28
					c-3.134,1.812-5.678,6.217-5.68,9.839C66.835,195.629,69.379,197.098,72.517,195.288z"/>
				<g>
					<path style="fill:#FF3F4A;" d="M70.943,191.415c0.383,0.083,0.846-0.007,1.346-0.295c1.316-0.761,2.381-2.607,2.381-4.126
						c0-0.577-0.154-1.024-0.416-1.314c0.626,0.134,1.035,0.729,1.035,1.67c0,1.521-1.067,3.367-2.381,4.126
						C72.092,191.948,71.373,191.89,70.943,191.415z"/>
					<path style="fill:#E31B25;" d="M70.943,191.415c-0.263-0.29-0.416-0.737-0.416-1.314c0-1.518,1.065-3.365,2.381-4.124
						c0.498-0.288,0.962-0.38,1.346-0.297c0.262,0.29,0.416,0.737,0.416,1.314c0,1.518-1.065,3.365-2.381,4.126
						C71.789,191.408,71.326,191.499,70.943,191.415z"/>
				</g>
			</g>
			<path style="fill:#BCBEC0;" d="M62.51,180.294c-1.792,2.139-3.014,5.023-3.016,7.534c0,0.199,0.009,0.391,0.025,0.579
				l-10.075-5.817c-0.015-0.188-0.024-0.381-0.024-0.583c-0.001-2.509,1.22-5.393,3.013-7.532L62.51,180.294z"/>
		</g>
		<g>
			<polygon style="fill:#303033;" points="64.389,188.02 29.827,168.064 29.827,159.885 64.389,179.84 			"/>
			<g>
				<polygon style="fill:#535359;" points="52.45,179.875 47.916,177.257 47.916,171.759 52.45,174.377 				"/>
				<polygon style="fill:#9C251F;" points="51.873,175.967 48.493,174.016 48.493,172.718 51.873,174.669 				"/>
				<polygon style="fill:#BCBEC0;" points="51.873,178.915 48.493,176.964 48.493,174.343 51.873,176.294 				"/>
			</g>
			<polygon style="fill:#535359;" points="47.202,176.845 31.159,167.583 31.16,162.085 47.202,171.347 			"/>
			<g>
				<path style="fill:#9C251F;" d="M40.098,170.748c0-1.239-0.87-2.748-1.944-3.368c-0.536-0.31-1.023-0.339-1.375-0.137
					l0.688-0.397c0.351-0.202,0.838-0.173,1.375,0.138c1.073,0.621,1.945,2.128,1.943,3.367c0,0.619-0.216,1.056-0.569,1.258
					l-0.687,0.396C39.879,171.801,40.097,171.366,40.098,170.748z"/>
				<path style="fill:#E31B25;" d="M38.154,171.87c-1.073-0.619-1.944-2.128-1.943-3.367c-0.001-1.24,0.87-1.742,1.943-1.122
					c1.074,0.62,1.944,2.128,1.944,3.368C40.097,171.987,39.228,172.49,38.154,171.87z"/>
			</g>
			<g>
				<path style="fill:#9C251F;" d="M45.146,173.662c0-1.239-0.871-2.748-1.944-3.367c-0.537-0.311-1.024-0.34-1.376-0.137
					l0.689-0.397c0.351-0.202,0.837-0.172,1.374,0.137c1.075,0.621,1.945,2.128,1.944,3.367c0,0.619-0.218,1.056-0.569,1.258
					l-0.689,0.396C44.928,174.716,45.146,174.28,45.146,173.662z"/>
				<path style="fill:#E31B25;" d="M43.202,174.785c-1.075-0.62-1.945-2.128-1.944-3.367c-0.001-1.241,0.869-1.743,1.944-1.123
					c1.073,0.619,1.944,2.128,1.944,3.367C45.146,174.901,44.275,175.404,43.202,174.785z"/>
			</g>
			<g>
				<polygon style="fill:#121214;" points="35.341,169.208 34.542,169.669 31.364,164.322 32.163,163.861 35.341,165.695 				"/>
				<polygon style="fill:#121214;" points="34.542,168.748 34.542,169.669 31.364,167.833 31.364,164.322 32.163,164.782
					32.163,167.373 				"/>
				<polygon style="fill:#FFFFFF;" points="34.542,166.156 34.542,168.748 32.163,167.373 32.163,164.782 				"/>
				<path style="fill:#BCBEC0;" d="M32.303,166.269L32.303,166.269l2.239,1.293v-1.406l-1.577-0.91
					C32.567,165.315,32.303,165.68,32.303,166.269z"/>
			</g>
			<polygon style="fill:#535359;" points="64.389,179.84 29.827,159.885 56.745,144.611 91.076,164.433 			"/>
			<polygon style="fill:#121214;" points="67.803,180.663 91.076,167.227 91.076,164.433 64.389,179.84 64.389,188.02
				67.803,186.048 			"/>
			<g>
				<g>
					<path style="fill:#121214;" d="M56.409,177.143c-0.263,0.291-0.416,0.737-0.416,1.314c0,1.519,1.065,3.366,2.38,4.125
						c0.5,0.289,0.964,0.379,1.346,0.295c-0.429,0.476-1.148,0.534-1.965,0.062c-1.316-0.759-2.381-2.607-2.381-4.125
						C55.373,177.872,55.783,177.276,56.409,177.143z"/>
					<path style="fill:#535359;" d="M56.409,177.143c0.383-0.082,0.846,0.008,1.345,0.297c1.314,0.759,2.381,2.605,2.381,4.124
						c0,0.576-0.153,1.022-0.416,1.313c-0.382,0.084-0.846-0.006-1.346-0.295c-1.314-0.759-2.38-2.606-2.38-4.125
						C55.993,177.879,56.146,177.433,56.409,177.143z"/>
				</g>
				<g>
					<g>
						<path style="fill:#9C251F;" d="M59.053,181.043c0-0.886-0.622-1.962-1.388-2.404c-0.385-0.222-0.732-0.243-0.983-0.098
							l0.442-0.256c0.251-0.145,0.599-0.125,0.982,0.097c0.768,0.443,1.39,1.519,1.389,2.405c0,0.443-0.155,0.754-0.406,0.898
							l-0.444,0.256C58.896,181.796,59.052,181.486,59.053,181.043z"/>
						<path style="fill:#E31B25;" d="M57.663,181.844c-0.766-0.442-1.388-1.519-1.388-2.404c0-0.886,0.621-1.244,1.389-0.801
							c0.767,0.442,1.388,1.518,1.388,2.404C59.052,181.928,58.431,182.287,57.663,181.844z"/>
					</g>
					<g>
						<path style="fill:#9C251F;" d="M58.38,181.224c0-0.771-0.541-1.708-1.208-2.093c-0.334-0.194-0.637-0.212-0.856-0.085
							l0.427-0.248c0.22-0.125,0.522-0.107,0.856,0.086c0.668,0.386,1.208,1.323,1.208,2.093c0,0.385-0.136,0.657-0.354,0.782
							l-0.427,0.247C58.245,181.879,58.38,181.608,58.38,181.224z"/>
						<path style="fill:#E31B25;" d="M57.172,181.921c-0.669-0.385-1.209-1.323-1.209-2.094c0-0.771,0.541-1.084,1.209-0.697
							c0.667,0.385,1.208,1.322,1.208,2.093C58.38,181.994,57.839,182.307,57.172,181.921z"/>
					</g>
				</g>
			</g>
		</g>
		<g>
			<polygon style="fill:#303033;" points="63.681,176.703 35.341,160.341 35.341,153.634 63.681,169.996 			"/>
			<polygon style="fill:#16A89F;" points="54.168,169.762 37.181,159.955 37.181,156.235 54.168,166.043 			"/>
			<polygon style="fill:#E31B25;" points="60.453,169.67 55.78,166.972 55.78,170.692 60.453,173.391 			"/>
			<polygon style="fill:#535359;" points="63.681,169.996 35.341,153.634 57.413,141.11 85.562,157.363 			"/>
			<path style="fill:#121214;" d="M68.831,156.459c-0.305-0.944-1.088-1.846-2.352-2.576c-3.33-1.922-8.725-1.922-12.055,0
				c-1.264,0.73-2.049,1.632-2.352,2.576c-0.496-1.542,0.287-3.194,2.352-4.387c3.33-1.92,8.726-1.92,12.055,0.002
				C68.545,153.265,69.327,154.917,68.831,156.459z"/>
			<path style="fill:#303033;" d="M68.831,156.459c-0.305,0.944-1.089,1.845-2.352,2.573c-3.33,1.922-8.725,1.922-12.055,0
				c-1.263-0.728-2.049-1.629-2.352-2.573c0.303-0.944,1.088-1.846,2.352-2.576c3.33-1.922,8.726-1.922,12.055,0
				C67.743,154.613,68.526,155.515,68.831,156.459z"/>
			<polygon style="fill:#121214;" points="85.562,164.071 85.562,157.363 63.681,169.996 63.681,176.703 			"/>
			<g>
				<g>
					<path style="fill:#A7A9AC;" d="M57.348,157.407c1.714,0.988,4.493,0.988,6.205,0c0.858-0.496,1.287-1.144,1.287-1.793v1.143
						c0,0.648-0.428,1.297-1.287,1.792c-1.712,0.99-4.491,0.99-6.204,0c-0.856-0.495-1.286-1.143-1.285-1.792v-1.143
						C56.064,156.262,56.493,156.911,57.348,157.407z"/>
					<path style="fill:#E6E7E8;" d="M57.348,153.824c1.714-0.99,4.493-0.99,6.205,0c1.714,0.989,1.714,2.592,0,3.583
						c-1.712,0.988-4.491,0.988-6.205,0C55.636,156.417,55.636,154.813,57.348,153.824z"/>
				</g>
				<g>
					<path style="fill:#A7A9AC;" d="M57.748,155.905c1.492,0.861,3.913,0.861,5.404,0.001c0.746-0.431,1.121-0.996,1.121-1.561
						v1.103c0,0.563-0.375,1.129-1.121,1.559c-1.493,0.862-3.912,0.862-5.402,0c-0.745-0.43-1.119-0.996-1.117-1.559v-1.103
						C56.632,154.91,57.004,155.475,57.748,155.905z"/>
					<path style="fill:#E6E7E8;" d="M57.748,152.785c1.492-0.862,3.913-0.862,5.404,0c1.494,0.861,1.492,2.257,0,3.12
						c-1.491,0.861-3.912,0.861-5.404-0.001C56.257,155.042,56.257,153.646,57.748,152.785z"/>
				</g>
			</g>
		</g>
		<g>
			<g>
				<path style="fill:#FF9D26;" d="M63.929,203.509c0-0.415,0.292-0.921,0.652-1.129c0.179-0.104,0.343-0.114,0.461-0.046
					l-34.561-19.953c-0.117-0.068-0.281-0.058-0.459,0.045c-0.36,0.208-0.652,0.714-0.652,1.131c0,0.207,0.073,0.353,0.191,0.421
					l34.56,19.953C64.003,203.863,63.93,203.716,63.929,203.509z"/>
				<path style="fill:#BA6000;" d="M64.581,203.886c0.36-0.208,0.652-0.715,0.652-1.129c0-0.417-0.292-0.584-0.652-0.377
					c-0.36,0.208-0.651,0.714-0.652,1.129C63.93,203.925,64.221,204.092,64.581,203.886z"/>
			</g>
			<g>
				<path style="fill:#FF9D26;" d="M84.527,159.897c0-0.416,0.292-0.921,0.652-1.129c0.179-0.104,0.343-0.113,0.46-0.046
					l-34.56-19.953c-0.119-0.068-0.282-0.058-0.461,0.046c-0.361,0.208-0.651,0.713-0.651,1.129c0,0.207,0.072,0.354,0.19,0.422
					l34.561,19.953C84.6,160.25,84.527,160.104,84.527,159.897z"/>
				<path style="fill:#BA6000;" d="M85.179,160.273c0.36-0.209,0.652-0.714,0.652-1.129c0-0.417-0.292-0.585-0.652-0.377
					c-0.36,0.208-0.652,0.714-0.652,1.129C84.527,160.311,84.819,160.48,85.179,160.273z"/>
			</g>
			<g>
				<path style="fill:#FF9D26;" d="M69.652,168.484c0-0.416,0.291-0.921,0.653-1.13c0.179-0.104,0.342-0.113,0.461-0.044
					l-34.561-19.954c-0.118-0.067-0.28-0.058-0.461,0.046c-0.359,0.207-0.652,0.713-0.652,1.129c0.001,0.208,0.074,0.354,0.19,0.422
					l34.561,19.953C69.726,168.839,69.652,168.692,69.652,168.484z"/>
				<path style="fill:#BA6000;" d="M70.305,168.861c0.359-0.209,0.651-0.714,0.651-1.129c0-0.417-0.292-0.584-0.651-0.377
					c-0.361,0.208-0.653,0.714-0.653,1.13C69.652,168.9,69.943,169.068,70.305,168.861z"/>
			</g>
			<g>
				<g>
					<path style="fill:#FF9D26;" d="M91.925,186.798l-0.298-25.194c0-0.339-0.067-0.672-0.182-0.966l0.218,0.061l0.232-0.301
						l-1.103-0.635c-0.03-0.019-0.06-0.036-0.092-0.053l-0.02-0.011l0,0.001c-0.016-0.007-0.031-0.016-0.047-0.023l-3.248-1.347
						c-0.543-0.225-1.491-0.083-2.204,0.33l-14.874,8.587c-0.715,0.412-1.662,1.365-2.204,2.215l-3.25,5.097
						c-0.567,0.891-0.995,2.214-0.995,3.076v26.028c0,0.206,0.071,0.351,0.187,0.421v0.001l0.002,0.001
						c0.002,0.001,1.208,0.696,1.208,0.696l0.429-1.067l0.058-0.861l-0.572,0.078c0-0.009,0.002-0.019,0.002-0.028v-24.473
						l3.073-5.501l3.11-4.773l13.826-7.981c0.401-0.232,1.044-0.329,1.349-0.202l3.248,1.347c0.277,0.114,0.539,0.62,0.539,1.041
						v26.027c0,0.203,0.067,0.347,0.181,0.418l0,0l1.207,0.697l0.544-1.983L91.925,186.798z"/>
					<path style="fill:#BA6000;" d="M92.153,189.45c-0.363,0.211-0.656,0.041-0.656-0.379l-0.001-26.027
						c0-0.42-0.259-0.927-0.537-1.04l-3.249-1.347c-0.305-0.127-0.948-0.03-1.348,0.202l-14.875,8.587
						c-0.401,0.231-1.043,0.878-1.348,1.355l-3.249,5.099c-0.277,0.433-0.538,1.24-0.538,1.661v26.028
						c0,0.418-0.294,0.928-0.656,1.136c-0.363,0.21-0.657,0.04-0.657-0.378V178.32c0-0.864,0.427-2.188,0.996-3.076l3.247-5.098
						c0.543-0.851,1.49-1.803,2.204-2.215l14.875-8.587c0.714-0.413,1.661-0.555,2.203-0.33l3.249,1.347
						c0.568,0.235,0.996,1.063,0.996,1.928v26.027C92.811,188.733,92.516,189.243,92.153,189.45z"/>
				</g>
				<g>
					<polygon style="fill:#FF9D26;" points="90.314,165.452 66.353,179.285 66.353,182.861 90.314,169.028 91.498,166.135 					"/>
					<polygon style="fill:#BA6000;" points="66.353,180.65 66.353,184.23 91.498,169.711 91.498,166.135 					"/>
				</g>
			</g>
		</g>
	</g>
</g>
</svg>
