<?xml version="1.0" encoding="utf-8"?>
<svg version="1.1" xmlns="http://www.w3.org/2000/svg" xmlns:xlink="http://www.w3.org/1999/xlink" x="0px" y="0px"
	viewBox="1000 0 1100 2200" style="enable-background:new 1000 0 1100 2200;" xml:space="preserve">
	<g>
		<path style="fill:#D3D3D3;" d="M1741.847,424.835v63.49h-384.5v-63.49c0-25.98,21.053-47.033,47.033-47.033h290.432
			C1720.794,377.802,1741.847,398.855,1741.847,424.835z"/>
		<path style="fill:#E59C5A;" d="M1146.219,933.29V552.976c0-50.131,40.778-90.909,90.909-90.909h624.939
			c50.131,0,90.909,40.778,90.909,90.909V933.29l-39.056,48.17h-736.262L1146.219,933.29z"/>
		<path style="fill:#3A3A3A;" d="M1952.976,933.29v797.999c0,50.131-40.778,90.909-90.909,90.909h-624.939
			c-50.131,0-90.909-40.778-90.909-90.909V933.29H1952.976z"/>
		<polygon style="fill:#FFFFFF;" points="1646.637,666.405 1646.637,707.692 1570.241,707.692 1570.241,784.088 1528.954,784.088
			1528.954,707.692 1452.558,707.692 1452.558,666.405 1528.954,666.405 1528.954,590.009 1570.241,590.009 1570.241,666.405"/>
		<polygon style="fill:#FFFFFF;" points="1516.297,1589.955 1533.334,1413.486 1449.697,1422.311 1582.897,1165.534
			1565.86,1342.002 1649.498,1333.178"/>
	</g>
</svg>
