<?xml version="1.0" encoding="utf-8"?>
<svg version="1.1" xmlns="http://www.w3.org/2000/svg" xmlns:xlink="http://www.w3.org/1999/xlink" x="0px" y="0px"
	viewBox="50 100 120 100" style="enable-background:new 50 100 120 100;" xml:space="preserve">
<g id="_x35_0-power-bank">
<g id="XMLID_1837_">
<polygon id="XMLID_908_" style="fill:#333333;" points="156.833,148.048 101.804,179.819 100.428,179.025 100.428,180.614
97.676,182.202 96.301,179.82 96.301,165.523 97.676,164.728 156.833,130.574"/>
<polygon id="XMLID_907_" style="fill:#4D4D4D;" points="97.676,164.728 97.676,182.202 63.283,162.346 63.283,144.871
66.035,144.871 97.676,163.14"/>
<polygon id="XMLID_905_" style="fill:#666666;" points="156.833,130.574 97.676,164.728 63.283,144.871 66.035,143.283
67.41,144.077 67.409,142.489 122.44,110.717 132.07,116.277 132.07,119.455 141.7,125.014 147.203,125.014"/>
</g>
<g id="XMLID_1834_">
<polygon id="XMLID_904_" style="fill:#333333;" points="67.41,142.489 67.41,144.077 100.428,163.14 101.804,162.346 "/>
<polygon id="XMLID_903_" style="fill:#282727;" points="100.428,163.14 100.428,179.025 101.804,179.82 101.804,162.346"/>
</g>
<g id="XMLID_1818_">
<g id="XMLID_1828_">
<polygon id="XMLID_902_" style="fill:#333333;" points="77.041,144.871 97.676,156.786 143.076,130.574 122.44,118.66 "/>
<polygon id="XMLID_900_" style="fill:#4D4D4D;" points="122.439,121.838 137.572,130.574 105.931,148.843 90.798,140.106
"/>
<polygon id="XMLID_899_" style="fill:#333333;" points="122.439,123.426 134.821,130.575 105.93,147.255 93.549,140.106 "/>
<polygon id="XMLID_898_" style="fill:#4D4D4D;" points="104.555,146.46 94.925,152.02 85.295,146.46 94.925,140.9 "/>
<polygon id="XMLID_897_" style="fill:#333333;" points="94.925,142.489 88.046,146.46 94.925,150.431 101.804,146.46 "/>
</g>
<g id="XMLID_1825_">
<polygon id="XMLID_895_" style="fill:#282727;" points="122.44,118.66 122.44,120.249 78.416,145.666 77.041,144.871 "/>
<polygon id="XMLID_894_" style="fill:#4D4D4D;" points="122.44,118.66 122.44,120.249 141.699,131.369 143.076,130.574 "/>
</g>
<g id="XMLID_1819_">
<polygon id="XMLID_893_" style="fill:#B1D137;" points="122.439,125.015 118.312,127.397 127.942,132.958 132.069,130.574
"/>
<polygon id="XMLID_892_" style="fill:#B1D137;" points="116.937,128.192 112.81,130.575 122.439,136.135 126.566,133.752
"/>
<polygon id="XMLID_890_" style="fill:#B1D137;" points="111.434,131.369 107.306,133.752 116.936,139.312 121.063,136.929
"/>
<polygon id="XMLID_889_" style="fill:#75983A;" points="105.93,134.546 101.803,136.928 111.433,142.489 115.561,140.106
"/>
<polygon id="XMLID_888_" style="fill:#4D4D4D;" points="100.428,137.723 96.3,140.105 105.93,145.666 110.058,143.283 "/>
</g>
</g>
<g id="XMLID_1765_">
<g id="XMLID_1809_">
<g id="XMLID_1815_">
<path id="XMLID_684_" style="fill:#313132;" d="M92.094,164.723c1.543,0.891,2.79,3.05,2.785,4.823
c-0.005,1.773-1.26,2.488-2.803,1.597c-1.543-0.891-2.79-3.05-2.785-4.823C89.296,164.547,90.55,163.832,92.094,164.723z"/>
<path id="XMLID_680_" style="fill:#94AF29;" d="M92.093,165.102c1.361,0.786,2.461,2.69,2.456,4.255
c-0.004,1.564-1.111,2.195-2.472,1.409c-1.361-0.786-2.461-2.691-2.456-4.255C89.625,164.947,90.731,164.316,92.093,165.102z"
/>
</g>
<g id="XMLID_1810_">
<g id="XMLID_1813_">
<path id="XMLID_887_" style="fill:#313132;" d="M92.215,169.477c0.634,0.311,1.176,0.15,1.307-0.397
c0.123-0.513-0.108-1.219-0.559-1.815c-0.097-0.129-0.237-0.172-0.294-0.097l-0.001,0.001
c-0.047,0.062-0.019,0.186,0.061,0.294c0.317,0.424,0.481,0.923,0.399,1.289c-0.09,0.405-0.488,0.528-0.952,0.299
c-0.628-0.31-1.156-1.111-1.156-1.729c0-0.336,0.157-0.556,0.42-0.604c0.081-0.015,0.109-0.107,0.062-0.223l0-0.001
c-0.057-0.14-0.197-0.259-0.295-0.242c-0.37,0.062-0.592,0.367-0.592,0.837C90.614,167.942,91.346,169.051,92.215,169.477z"/>
</g>
<g id="XMLID_1811_">
<path id="XMLID_885_" style="fill:#313132;" d="M92.085,167.684L92.085,167.684c0.112,0.065,0.203,0.026,0.203-0.086v-1.014
c0-0.112-0.091-0.255-0.203-0.32l0,0c-0.112-0.065-0.203-0.026-0.203,0.086v1.014
C91.882,167.476,91.973,167.619,92.085,167.684z"/>
</g>
</g>
</g>
<g id="XMLID_1800_">
<g id="XMLID_1805_">
<path id="XMLID_884_" style="fill:#333333;" d="M94.125,177.023c0.164,0,0.318-0.039,0.455-0.118
c0.321-0.185,0.499-0.559,0.5-1.052c0.003-0.953-0.645-2.075-1.474-2.554l0,0c-0.432-0.249-0.848-0.284-1.17-0.098
c-0.321,0.185-0.499,0.559-0.501,1.052c-0.003,0.953,0.645,2.075,1.474,2.554C93.658,176.951,93.901,177.023,94.125,177.023z"
/>
<path id="XMLID_882_" style="fill:#B3B3B3;" d="M93.512,173.462c0.765,0.442,1.383,1.512,1.38,2.391
c-0.002,0.879-0.624,1.233-1.389,0.792c-0.765-0.442-1.383-1.512-1.38-2.391C92.125,173.375,92.747,173.02,93.512,173.462z"/>
<path id="XMLID_676_" style="fill:#FFE400;" d="M93.467,173.929c0.561,0.324,1.014,1.108,1.012,1.753
c-0.002,0.644-0.458,0.904-1.019,0.581c-0.561-0.324-1.014-1.108-1.012-1.753C92.45,173.865,92.906,173.605,93.467,173.929z"/>
</g>
<g id="XMLID_1801_">
<path id="XMLID_881_" style="fill:#333333;" d="M90.03,174.641c0.164,0,0.318-0.039,0.455-0.118
c0.321-0.185,0.499-0.559,0.5-1.052c0.003-0.953-0.645-2.075-1.474-2.554c-0.432-0.249-0.847-0.284-1.17-0.098
c-0.321,0.185-0.499,0.558-0.501,1.052c-0.002,0.953,0.645,2.075,1.474,2.554C89.563,174.569,89.806,174.641,90.03,174.641z"/>
<path id="XMLID_878_" style="fill:#B3B3B3;" d="M89.417,171.08c0.765,0.442,1.383,1.512,1.38,2.391
c-0.003,0.879-0.624,1.233-1.389,0.792c-0.765-0.442-1.383-1.512-1.38-2.391C88.03,170.993,88.652,170.639,89.417,171.08z"/>
<path id="XMLID_675_" style="fill:#DE361F;" d="M89.372,171.547c0.561,0.324,1.014,1.108,1.012,1.753
c-0.002,0.644-0.458,0.904-1.019,0.58c-0.561-0.324-1.014-1.108-1.012-1.753C88.356,171.483,88.812,171.223,89.372,171.547z"/>
</g>
</g>
<g id="XMLID_1793_">
<path id="XMLID_668_" style="fill:#808080;" d="M78.198,166.188v0.529c0,0.055,0.021,0.12,0.061,0.181l0.501,0.79
c0.039,0.062,0.091,0.113,0.146,0.145l3.055,1.764c0.055,0.032,0.107,0.041,0.146,0.024l0.5-0.212
c0.039-0.017,0.061-0.056,0.061-0.111v-0.529c0-0.114-0.093-0.261-0.207-0.327l-4.056-2.342
C78.29,166.034,78.198,166.074,78.198,166.188z M78.412,166.32l4.041,2.333v0.518l-0.496,0.21l-3.049-1.76l-0.496-0.782V166.32z
"/>
<polygon id="XMLID_667_" style="fill:#313132;" points="78.412,166.837 78.909,167.62 81.957,169.38 82.453,169.17
82.453,168.653 78.412,166.32 "/>
<polygon id="XMLID_877_" style="fill:#282727;" points="79.783,167.111 78.909,167.62 78.412,166.837 78.412,166.32 "/>
<polygon id="XMLID_876_" style="fill:#333333;" points="78.909,167.62 79.783,167.111 82.453,168.653 82.453,169.17
81.957,169.38 "/>
</g>
<g id="XMLID_1787_">
<path id="XMLID_666_" style="fill:#313132;" d="M85.296,159.602c0.173,0.1,0.313,0.343,0.313,0.542
c-0.001,0.199-0.142,0.28-0.315,0.18c-0.173-0.1-0.313-0.343-0.313-0.542C84.981,159.583,85.122,159.502,85.296,159.602z"/>
<path id="XMLID_663_" style="fill:#313132;" d="M83.92,158.808c0.174,0.1,0.314,0.343,0.313,0.542
c-0.001,0.199-0.142,0.28-0.315,0.179c-0.173-0.1-0.313-0.343-0.313-0.542C83.606,158.788,83.747,158.708,83.92,158.808z"/>
<path id="XMLID_662_" style="fill:#313132;" d="M82.545,158.014c0.173,0.1,0.313,0.343,0.313,0.542
c0,0.199-0.142,0.28-0.315,0.18c-0.174-0.1-0.314-0.343-0.313-0.542C82.231,157.994,82.372,157.914,82.545,158.014z"/>
<path id="XMLID_661_" style="fill:#313132;" d="M81.17,157.22c0.173,0.1,0.313,0.343,0.313,0.542
c-0.001,0.199-0.142,0.28-0.315,0.18c-0.173-0.1-0.313-0.343-0.313-0.542C80.855,157.2,80.996,157.119,81.17,157.22z"/>
<path id="XMLID_660_" style="fill:#313132;" d="M79.794,156.425c0.174,0.1,0.313,0.343,0.313,0.542
c-0.001,0.199-0.142,0.28-0.315,0.18c-0.174-0.1-0.313-0.343-0.313-0.542C79.479,156.405,79.62,156.325,79.794,156.425z"/>
</g>
<g id="XMLID_1766_">
<g id="XMLID_1777_">
<path id="XMLID_1784_" style="fill:#333333;" d="M65.159,154.908l0-6.788l10.006,5.777v6.788L65.159,154.908z M65.535,148.771
l0,5.921l9.255,5.343v-5.921L65.535,148.771z"/>
<polygon id="XMLID_871_" style="fill:#333333;" points="66.035,154.403 66.039,149.637 74.289,154.403 74.289,159.169 "/>
<polygon id="XMLID_870_" style="fill:#1A1A1A;" points="66.035,154.403 70.162,152.02 66.039,149.637 "/>
<polygon id="XMLID_869_" style="fill:#E6E6E6;" points="66.722,150.829 66.722,152.417 73.602,156.388 73.601,154.8 "/>
<path id="XMLID_1778_" style="fill:#B3B3B3;" d="M74.289,154.403l-8.25-4.766l-0.004,4.766l8.254,4.766L74.289,154.403z
 M73.602,157.977l-6.879-3.971l-0.001-3.177l6.879,3.971L73.602,157.977z"/>
</g>
<g id="XMLID_1767_">
<path id="XMLID_1774_" style="fill:#333333;" d="M65.159,161.259l0-6.788l10.006,5.777v6.788L65.159,161.259z M65.535,155.122
l0,5.921l9.255,5.343v-5.921L65.535,155.122z"/>
<polygon id="XMLID_861_" style="fill:#333333;" points="66.035,160.754 66.039,155.988 74.289,160.754 74.289,165.519 "/>
<polygon id="XMLID_860_" style="fill:#1A1A1A;" points="66.035,160.754 70.162,158.371 66.039,155.988 "/>
<polygon id="XMLID_859_" style="fill:#E6E6E6;" points="66.722,157.18 66.722,158.768 73.602,162.739 73.601,161.151 "/>
<path id="XMLID_1768_" style="fill:#B3B3B3;" d="M74.289,160.754l-8.25-4.765l-0.004,4.765l8.254,4.766L74.289,160.754z
 M73.602,164.328l-6.879-3.971l-0.001-3.177l6.879,3.971L73.602,164.328z"/>
</g>
</g>
</g>
</g>
</svg>
